<?xml version="1.0" encoding="utf-8"?>
<!-- Generator: Adobe Illustrator 16.0.0, SVG Export Plug-In . SVG Version: 6.00 Build 0)  -->
<!DOCTYPE svg PUBLIC "-//W3C//DTD SVG 1.1//EN" "http://www.w3.org/Graphics/SVG/1.1/DTD/svg11.dtd">
<svg version="1.1" id="Layer_1" xmlns="http://www.w3.org/2000/svg" xmlns:xlink="http://www.w3.org/1999/xlink" x="0px" y="0px"
	 width="487px" height="183px" viewBox="0 0 487 183" enable-background="new 0 0 487 183" xml:space="preserve">
<g>
	<g>
		<defs>
			<rect id="SVGID_1_" x="-23" width="520" height="181"/>
		</defs>
		<clipPath id="SVGID_2_">
			<use xlink:href="#SVGID_1_"  overflow="visible"/>
		</clipPath>
		<polygon clip-path="url(#SVGID_2_)" fill="#001689" points="260.142,109.764 135.295,109.764 132.692,123.402 257.541,123.402 		
			"/>
		<polygon clip-path="url(#SVGID_2_)" fill="#001689" points="308.371,109.764 297.975,123.402 467.975,123.402 462.779,109.764 		
			"/>
		<g clip-path="url(#SVGID_2_)">
			<defs>
				<rect id="SVGID_3_" x="-23" width="520" height="181"/>
			</defs>
			<clipPath id="SVGID_4_">
				<use xlink:href="#SVGID_3_"  overflow="visible"/>
			</clipPath>
			<path clip-path="url(#SVGID_4_)" fill="#001689" d="M162.747,73.045h7.063c16.396,0,27.163-8.252,30.531-24.108
				c2.887-13.571-1.871-23.89-17.29-23.89h-30.297l-16.48,77.531h20.199L162.747,73.045z M169.857,39.599h3.804
				c5.101,0,7.171,3.042,5.81,9.448c-1.386,6.515-4.723,9.447-9.829,9.447h-3.801L169.857,39.599"/>
			<path clip-path="url(#SVGID_4_)" fill="#001689" d="M213.822,104.101c22.042,0,28.253-15.418,31.531-30.839
				c3.603-16.939,4.516-30.948-18.397-30.948c-22.043,0-28.253,15.421-31.532,30.839
				C191.822,90.094,190.909,104.101,213.822,104.101 M214.949,73.262c3.16-14.874,4.988-18.352,9.33-18.352
				c4.453,0,4.69,3.478,1.529,18.352c-3.14,14.77-4.855,18.245-9.308,18.245C212.158,91.507,211.81,88.031,214.949,73.262"/>
			<polygon clip-path="url(#SVGID_4_)" fill="#001689" points="263.176,102.579 279.66,25.046 260.113,25.046 243.633,102.579 			
				"/>
			<path clip-path="url(#SVGID_4_)" fill="#001689" d="M300.083,106.396l29.579-62.561h-19.545l-14.072,39.633h-0.217l2.454-39.633
				h-20.198l3.756,55.379c0.109,1.521,0.128,3.475-0.056,4.343c-0.254,1.196-3.507,6.313-8.392,6.313
				c-1.409,0-2.909-0.11-4.251-0.435l-2.909,13.685c3.189,0.324,6.749,0.432,10.876,0.432
				C287.643,123.553,293.749,119.857,300.083,106.396"/>
			<path clip-path="url(#SVGID_4_)" fill="#001689" d="M336.007,56.975l-6.649,31.273c-2.768,13.027,1.484,14.986,13.427,14.986
				c3.261,0,7.106-0.219,10.783-0.655l2.769-13.028h-3.038c-3.152,0-4.417-1.193-3.704-4.561l5.957-28.016h7.709l2.798-13.14h-7.716
				l4.03-18.815h-19.607l-3.969,18.815h-6.515l-2.793,13.14H336.007"/>
			<path clip-path="url(#SVGID_4_)" fill="#001689" d="M378.896,104.102c16.18,0,24.489-7.927,27.729-22.15h-17.588
				c-1.709,8.033-4.235,10.203-7.709,10.203c-2.713,0-4.978-1.625-3.641-7.926l1.645-7.709h28.992l1.268-5.972
				c4.522-21.282-1.926-28.233-17.562-28.233c-17.593,0-26.774,8.47-31.555,30.947C355.722,95.631,360,104.102,378.896,104.102
				 M382.146,63.271c1.316-6.188,3.22-9.014,7.237-9.014c4.128,0,4.829,2.825,3.512,9.014l-0.553,2.607h-10.753L382.146,63.271"/>
			<polygon clip-path="url(#SVGID_4_)" fill="#001689" points="433.896,64.139 433.678,64.139 441.985,25.047 422.439,25.047 
				405.961,102.579 425.505,102.579 428.713,87.487 433.055,82.383 438.645,102.579 459.491,102.579 448.483,68.049 469.919,43.835 
				449.07,43.835 			"/>
			<path clip-path="url(#SVGID_4_)" fill="#001689" d="M472.844,29.835l-0.064,0.295c-0.04,0.185-0.129,0.601-0.065,0.833h1.213
				l0.013-0.061c-0.066-0.036-0.079-0.086-0.1-0.135c-0.036-0.088,0.025-0.381,0.074-0.607l0.077-0.374
				c0.126-0.582,0.033-0.935-0.507-0.981l0.001-0.012c0.538-0.081,0.847-0.462,0.972-1.045c0.143-0.674-0.082-1.166-0.953-1.166
				h-1.788l-0.93,4.381h1.14l0.374-1.754h0.301C472.875,29.209,472.946,29.338,472.844,29.835 M472.464,28.436l0.217-1.031h0.225
				c0.342,0,0.449,0.152,0.373,0.509c-0.064,0.315-0.262,0.522-0.585,0.522H472.464"/>
			<path clip-path="url(#SVGID_4_)" fill="#001689" d="M476.551,28.908c0-2.143-1.741-3.882-3.884-3.882
				c-2.138,0-3.881,1.739-3.881,3.882c0,2.141,1.743,3.881,3.881,3.881C474.81,32.789,476.551,31.049,476.551,28.908
				 M469.676,28.908c0-1.65,1.342-2.994,2.991-2.994c1.65,0,2.996,1.344,2.996,2.994c0,1.648-1.346,2.993-2.996,2.993
				C471.018,31.901,469.676,30.557,469.676,28.908"/>
			<path clip-path="url(#SVGID_4_)" d="M153.404,137.526c-1.191-1.683-2.747-2.841-4.667-3.472
				c-1.128-0.369-2.541-0.568-4.238-0.594h-11.806v27.366h11.806c4.139,0,7.2-1.7,9.184-5.106c1.461-2.522,2.194-5.606,2.194-9.246
				c0-1.434-0.175-2.945-0.521-4.527C155.009,140.36,154.357,138.887,153.404,137.526 M149.189,152.074
				c-1.066,2.659-2.952,3.99-5.659,3.99h-5.288v-17.842h5.288c2.606,0,4.348,0.748,5.223,2.237c0.875,1.49,1.313,3.625,1.313,6.406
				C150.065,148.883,149.773,150.618,149.189,152.074"/>
			<path clip-path="url(#SVGID_4_)" d="M176.417,143.523c-0.919-1.359-2.084-2.355-3.497-2.986c-1.41-0.631-2.997-0.945-4.758-0.945
				c-2.966,0-5.376,0.935-7.235,2.803c-1.858,1.867-2.787,4.554-2.787,8.056c0,3.737,1.028,6.435,3.086,8.095
				c2.059,1.66,4.434,2.485,7.126,2.485c3.262,0,5.799-0.981,7.611-2.944c1.165-1.234,1.819-2.451,1.961-3.651h-5.386
				c-0.317,0.59-0.68,1.049-1.093,1.377c-0.754,0.616-1.735,0.92-2.943,0.92c-1.141,0-2.115-0.253-2.924-0.763
				c-1.332-0.813-2.04-2.232-2.122-4.262h14.749c0.025-1.744-0.033-3.08-0.175-4.01
				C177.783,146.114,177.247,144.723,176.417,143.523 M163.573,148.191c0.192-1.297,0.663-2.322,1.415-3.078
				c0.749-0.759,1.806-1.135,3.17-1.135c1.253,0,2.304,0.357,3.15,1.07c0.847,0.715,1.318,1.76,1.415,3.143H163.573"/>
			<polygon clip-path="url(#SVGID_4_)" points="189.028,155.513 184.82,140.576 178.882,140.576 186.127,160.826 191.708,160.826 
				199.019,140.576 193.337,140.576 			"/>
			<path clip-path="url(#SVGID_4_)" d="M218.7,143.523c-0.919-1.359-2.086-2.355-3.496-2.986c-1.413-0.631-2.998-0.945-4.759-0.945
				c-2.966,0-5.378,0.935-7.236,2.803c-1.858,1.867-2.787,4.554-2.787,8.056c0,3.737,1.028,6.435,3.087,8.095
				s4.434,2.485,7.126,2.485c3.262,0,5.798-0.981,7.61-2.944c1.166-1.234,1.818-2.451,1.962-3.651h-5.387
				c-0.316,0.59-0.68,1.049-1.092,1.377c-0.754,0.616-1.736,0.92-2.945,0.92c-1.139,0-2.114-0.253-2.923-0.763
				c-1.331-0.813-2.041-2.232-2.121-4.262h14.748c0.026-1.744-0.033-3.08-0.176-4.01C220.066,146.114,219.529,144.723,218.7,143.523
				 M205.855,148.191c0.192-1.297,0.664-2.322,1.414-3.078c0.75-0.759,1.808-1.135,3.172-1.135c1.254,0,2.302,0.357,3.15,1.07
				c0.847,0.715,1.318,1.76,1.414,3.143H205.855"/>
			<rect x="223.277" y="133.49" clip-path="url(#SVGID_4_)" width="5.287" height="27.337"/>
			<path clip-path="url(#SVGID_4_)" d="M242.844,139.473c-3.478,0-6.07,1.072-7.778,3.209c-1.709,2.139-2.563,4.662-2.563,7.58
				c0,2.965,0.854,5.502,2.563,7.608c1.708,2.106,4.301,3.16,7.778,3.16c3.48,0,6.071-1.054,7.779-3.16
				c1.71-2.106,2.563-4.644,2.563-7.608c0-2.918-0.854-5.441-2.563-7.58C248.915,140.545,246.324,139.473,242.844,139.473
				 M246.394,154.99c-0.83,1.104-2.021,1.652-3.568,1.652c-1.55,0-2.74-0.549-3.577-1.652c-0.836-1.104-1.256-2.671-1.256-4.702
				c0-2.032,0.42-3.599,1.256-4.694c0.837-1.096,2.027-1.646,3.577-1.646c1.548,0,2.738,0.55,3.568,1.646
				c0.831,1.096,1.243,2.662,1.243,4.694C247.637,152.319,247.225,153.887,246.394,154.99"/>
			<path clip-path="url(#SVGID_4_)" d="M267.898,139.678c-1.631,0-3.035,0.451-4.217,1.352c-0.646,0.51-1.257,1.203-1.828,2.08
				v-2.996h-5.056v28.209h5.229v-10.498c0.559,0.842,1.131,1.486,1.715,1.926c1.07,0.796,2.412,1.193,4.028,1.193
				c2.539,0,4.611-0.935,6.223-2.803c1.612-1.869,2.414-4.589,2.414-8.154c0-3.381-0.823-5.943-2.472-7.688
				C272.285,140.551,270.275,139.678,267.898,139.678 M269.754,154.838c-0.778,1.148-1.905,1.721-3.384,1.721
				c-1.021,0-1.901-0.281-2.647-0.84c-1.266-0.96-1.898-2.619-1.898-4.984c0-1.492,0.188-2.723,0.561-3.692
				c0.72-1.83,2.046-2.744,3.977-2.744c1.604,0,2.768,0.601,3.481,1.812c0.717,1.207,1.073,2.592,1.073,4.16
				C270.916,152.171,270.527,153.695,269.754,154.838"/>
			<path clip-path="url(#SVGID_4_)" d="M307.784,142.492c-0.706-0.867-1.497-1.477-2.365-1.825
				c-0.872-0.351-1.755-0.524-2.647-0.524c-1.344,0-2.563,0.279-3.657,0.836c-1.029,0.562-1.894,1.437-2.589,2.628
				c-0.396-0.994-0.977-1.806-1.74-2.44c-0.951-0.683-2.197-1.023-3.739-1.023c-1.629,0-2.954,0.398-3.979,1.191
				c-0.578,0.445-1.196,1.199-1.849,2.252v-2.949h-5.145v20.19h5.375v-12.173c0-1.1,0.143-1.928,0.429-2.484
				c0.518-0.977,1.53-1.467,3.038-1.467c1.298,0,2.168,0.49,2.614,1.467c0.245,0.545,0.369,1.418,0.369,2.615v12.042h5.288v-12.044
				c0-0.9,0.143-1.676,0.43-2.316c0.557-1.215,1.571-1.82,3.036-1.82c1.269,0,2.14,0.47,2.611,1.41
				c0.249,0.494,0.372,1.125,0.372,1.893v12.878h5.453l0.036-12.75c0-1.313-0.062-2.306-0.185-2.985
				C308.742,144.063,308.356,143.198,307.784,142.492"/>
			<path clip-path="url(#SVGID_4_)" d="M330.643,143.523c-0.919-1.359-2.083-2.355-3.494-2.986
				c-1.413-0.631-2.998-0.945-4.762-0.945c-2.965,0-5.379,0.935-7.234,2.803c-1.859,1.867-2.789,4.554-2.789,8.056
				c0,3.737,1.029,6.435,3.087,8.095c2.062,1.66,4.436,2.485,7.127,2.485c3.263,0,5.798-0.981,7.61-2.944
				c1.166-1.234,1.819-2.451,1.961-3.651h-5.385c-0.315,0.59-0.681,1.049-1.093,1.377c-0.754,0.616-1.735,0.92-2.947,0.92
				c-1.137,0-2.111-0.253-2.92-0.763c-1.332-0.813-2.04-2.232-2.124-4.262h14.75c0.027-1.744-0.032-3.08-0.174-4.01
				C332.008,146.114,331.472,144.723,330.643,143.523 M317.798,148.191c0.192-1.297,0.664-2.322,1.415-3.078
				c0.749-0.759,1.809-1.135,3.169-1.135c1.257,0,2.306,0.357,3.15,1.07c0.85,0.715,1.321,1.76,1.418,3.143H317.798"/>
			<path clip-path="url(#SVGID_4_)" d="M346.299,140.113c-1.665,0-3.042,0.407-4.13,1.225c-0.604,0.455-1.242,1.203-1.922,2.238
				v-2.941h-5.114v20.192h5.286v-10.958c0-1.249,0.175-2.277,0.517-3.085c0.664-1.522,1.884-2.282,3.666-2.282
				c1.449,0,2.434,0.518,2.947,1.559c0.284,0.568,0.426,1.388,0.426,2.453v12.313h5.432v-13.628c0-2.539-0.662-4.355-1.989-5.445
				C350.089,140.66,348.385,140.113,346.299,140.113"/>
			<path clip-path="url(#SVGID_4_)" d="M364.311,135.088h-5.23v5.693h-2.819v3.72h2.819v12.5c0,1.265,0.297,2.205,0.889,2.813
				c0.915,0.957,2.623,1.389,5.119,1.303l2.502-0.143v-3.951c-0.17,0.027-0.349,0.049-0.529,0.063
				c-0.177,0.015-0.348,0.022-0.507,0.022c-1.077,0-1.723-0.103-1.932-0.309c-0.21-0.204-0.312-0.723-0.312-1.559v-10.741h3.279
				v-3.72h-3.279V135.088"/>
			<path clip-path="url(#SVGID_4_)" d="M393.218,137.354c2.001,0,3.51,0.596,4.529,1.786c0.569,0.67,1.038,1.664,1.4,2.979h5.695
				c-0.085-1.711-0.711-3.414-1.871-5.113c-2.104-3.022-5.431-4.531-9.981-4.531c-3.402,0-6.201,1.125-8.402,3.377
				c-2.536,2.587-3.799,6.27-3.799,11.044c0,4.42,1.111,7.899,3.34,10.437c2.225,2.525,5.282,3.785,9.17,3.785
				c3.145,0,5.721-0.932,7.734-2.803c2.011-1.868,3.263-4.293,3.752-7.277h-5.694c-0.374,1.412-0.845,2.469-1.411,3.174
				c-1.031,1.313-2.52,1.969-4.479,1.969c-1.904,0-3.481-0.766-4.716-2.294c-1.237-1.525-1.858-3.827-1.858-6.896
				c0-3.071,0.589-5.442,1.766-7.118C389.568,138.193,391.179,137.354,393.218,137.354"/>
			<path clip-path="url(#SVGID_4_)" d="M418.118,139.473c-3.479,0-6.071,1.072-7.78,3.209c-1.711,2.139-2.563,4.662-2.563,7.58
				c0,2.965,0.852,5.502,2.563,7.608c1.709,2.106,4.302,3.16,7.78,3.16s6.072-1.054,7.778-3.16c1.709-2.106,2.563-4.644,2.563-7.608
				c0-2.918-0.854-5.441-2.563-7.58C424.19,140.545,421.597,139.473,418.118,139.473 M421.667,154.99
				c-0.831,1.104-2.021,1.652-3.568,1.652s-2.743-0.549-3.578-1.652c-0.838-1.104-1.256-2.671-1.256-4.702
				c0-2.032,0.418-3.599,1.256-4.694c0.835-1.096,2.03-1.646,3.578-1.646s2.737,0.55,3.568,1.646
				c0.828,1.096,1.246,2.662,1.246,4.694C422.913,152.319,422.495,153.887,421.667,154.99"/>
			<path clip-path="url(#SVGID_4_)" d="M443.16,140.113c-1.588,0-2.876,0.415-3.866,1.245c-0.608,0.493-1.32,1.416-2.141,2.767
				v-3.548h-4.995v20.25h5.288v-9.661c0-1.621,0.203-2.822,0.611-3.602c0.729-1.385,2.159-2.077,4.284-2.077
				c0.161,0,0.372,0.006,0.633,0.019c0.26,0.01,0.558,0.035,0.893,0.071v-5.435c-0.236-0.008-0.393-0.016-0.459-0.021
				C443.342,140.118,443.26,140.113,443.16,140.113"/>
			<path clip-path="url(#SVGID_4_)" d="M457.965,139.678c-1.632,0-3.035,0.451-4.218,1.352c-0.648,0.51-1.259,1.203-1.827,2.08
				v-2.996h-5.056v28.209h5.227v-10.498c0.562,0.842,1.133,1.486,1.718,1.926c1.069,0.796,2.412,1.193,4.028,1.193
				c2.536,0,4.609-0.935,6.223-2.803c1.611-1.869,2.414-4.589,2.414-8.154c0-3.381-0.823-5.943-2.475-7.688
				C462.352,140.551,460.34,139.678,457.965,139.678 M459.819,154.838c-0.777,1.148-1.906,1.721-3.384,1.721
				c-1.021,0-1.9-0.281-2.647-0.84c-1.265-0.96-1.9-2.619-1.9-4.984c0-1.492,0.189-2.723,0.563-3.692
				c0.719-1.83,2.045-2.744,3.977-2.744c1.604,0,2.766,0.601,3.481,1.812c0.716,1.207,1.072,2.592,1.072,4.16
				C460.981,152.171,460.594,153.695,459.819,154.838"/>
			<rect x="470.141" y="155.277" clip-path="url(#SVGID_4_)" width="5.637" height="5.55"/>
			<path clip-path="url(#SVGID_4_)" d="M58.828,16.012c-0.119-0.394-0.184-0.609-0.184-0.609L58.64,16.09
				c0.022,0.077,0.047,0.162,0.076,0.26C58.761,16.215,58.796,16.106,58.828,16.012"/>
			<path clip-path="url(#SVGID_4_)" d="M26.696,99.48c0.453-0.828,0.887-1.643,1.327-2.461c-0.401,0.674-0.792,1.344-1.204,2.023
				c-6.417,10.586-6.636,21.166-2.833,29.889C20.591,120.389,20.909,110.053,26.696,99.48"/>
			<path clip-path="url(#SVGID_4_)" d="M91.06,130.844c4.755-9.014,5.129-20.338-1.516-31.801
				c-2.907-5.012-5.509-9.869-7.861-14.563c2.327,4.849,4.895,9.859,7.738,15.001C95.701,110.837,95.472,121.945,91.06,130.844"/>
			<path clip-path="url(#SVGID_4_)" d="M61.223,26.486c-0.992-4.576-1.623-7.903-2.184-9.769l0.012-1.315
				c0,0-0.041,0.125-0.119,0.362l-0.014,1.254C59.459,18.822,60.165,22.064,61.223,26.486"/>
			<path clip-path="url(#SVGID_4_)" fill="#001689" d="M91.06,130.844c4.412-8.898,4.641-20.007-1.639-31.363
				c-2.843-5.142-5.411-10.152-7.738-15.001c-12.093-25.2-17.59-45.997-20.46-57.993c-1.058-4.423-1.763-7.664-2.305-9.468
				l0.014-1.254l0.001-0.063c0,0-0.039,0.113-0.105,0.311c-0.031,0.096-0.067,0.203-0.112,0.338
				c-0.029-0.098-0.053-0.184-0.076-0.259c-0.074-0.252-0.114-0.39-0.114-0.39l-0.01,1.258c-2.418,7.359-7.748,37.715-30.493,80.06
				c-0.44,0.819-0.874,1.634-1.327,2.462c-5.786,10.572-6.105,20.908-2.71,29.451c5.013,12.617,18.132,21.323,33.74,21.086
				C72.521,150.242,85.326,142.41,91.06,130.844"/>
			<path clip-path="url(#SVGID_4_)" d="M100.109,22.991l-32.146-0.021c2.855,13.465,8.833,39.486,27.919,72.398
				c4.019,6.934,6.034,14.232,6.034,21.375c0,6.627-1.733,13.114-5.211,19.046c-6.918,11.8-19.558,19.468-33.77,20.808v6.154
				l37.09,0.023c5.607,0.002,10.156-3.557,10.161-7.963l0.074-123.855C110.264,26.561,105.72,22.991,100.109,22.991"/>
			<path clip-path="url(#SVGID_4_)" d="M19.135,135.608c-3.331-5.815-4.991-12.13-4.991-18.56c0-7.31,2.143-14.765,6.409-21.803
				c19.741-32.561,26.022-58.822,29.032-72.285l-33.545-0.021c-5.608-0.004-10.158,3.559-10.161,7.956l-0.075,123.86
				c-0.002,4.395,4.54,7.967,10.152,7.967l37.178,0.023v-6.119C38.766,155.375,26.018,147.612,19.135,135.608"/>
		</g>
	</g>
</g>
<g>
	<path fill="#052460" d="M90.362,99.62C66.989,57.347,61.779,23.808,59.454,16.064l0.015-1.336c0,0-0.079,0.232-0.22,0.657
		c-0.124-0.425-0.192-0.657-0.192-0.657l-0.011,1.275c-2.498,7.599-8.048,39.405-32.243,83.616
		c-14.524,26.538,4.917,51.613,31.442,51.211C84.773,151.233,104.997,126.086,90.362,99.62z"/>
	<path fill="#062460" d="M90.227,99.559C66.942,57.414,61.755,23.921,59.439,16.2l0.004-1.29c0,0-0.082,0.236-0.223,0.66
		c-0.124-0.424-0.194-0.65-0.194-0.65l-0.013,1.275c-2.492,7.576-8.023,39.286-32.143,83.356
		c-14.483,26.461,4.899,50.261,31.331,51.064C84.635,151.42,104.808,125.949,90.227,99.559z"/>
	<path fill="#082560" d="M90.092,99.497C66.895,57.482,61.731,24.033,59.424,16.335l-0.006-1.242c0,0-0.085,0.239-0.225,0.662
		c-0.123-0.423-0.195-0.643-0.195-0.643l-0.016,1.274c-2.486,7.554-7.999,39.167-32.043,83.098
		c-14.442,26.382,4.872,50.11,31.22,50.916C84.507,151.206,104.619,125.813,90.092,99.497z"/>
	<path fill="#092561" d="M89.958,99.436c-23.111-41.886-28.25-75.29-30.548-82.965l-0.017-1.195c0,0-0.088,0.242-0.228,0.664
		c-0.123-0.422-0.197-0.636-0.197-0.636l-0.019,1.274c-2.479,7.531-7.974,39.048-31.944,82.839
		c-14.4,26.304,4.845,49.964,31.108,50.769C84.377,150.99,104.43,125.675,89.958,99.436z"/>
	<path fill="#0A2661" d="M89.823,99.374C66.8,57.618,61.683,24.258,59.395,16.605l-0.028-1.148c0,0-0.09,0.246-0.23,0.666
		c-0.122-0.42-0.2-0.628-0.2-0.628l-0.021,1.274c-2.474,7.509-7.949,38.929-31.845,82.58c-14.359,26.226,4.818,49.814,30.997,50.62
		C84.249,150.775,104.241,125.538,89.823,99.374z"/>
	<path fill="#0B2662" d="M89.688,99.313C66.752,57.686,61.659,24.371,59.379,16.741l-0.038-1.102c0,0-0.094,0.25-0.233,0.668
		c-0.122-0.419-0.202-0.621-0.202-0.621l-0.023,1.274c-2.467,7.486-7.924,38.81-31.746,82.321
		c-14.317,26.147,4.792,49.667,30.886,50.473C84.12,150.561,104.051,125.401,89.688,99.313z"/>
	<path fill="#0D2762" d="M89.552,99.251C66.705,57.753,61.635,24.483,59.364,16.876l-0.049-1.054c0,0-0.097,0.252-0.236,0.67
		c-0.121-0.418-0.203-0.613-0.203-0.613l-0.026,1.273c-2.461,7.464-7.899,38.69-31.646,82.062
		c-14.276,26.069,4.764,49.521,30.774,50.326C83.991,150.345,103.862,125.265,89.552,99.251z"/>
	<path fill="#0E2862" d="M89.417,99.189C66.657,57.821,61.611,24.597,59.35,17.011l-0.06-1.007c0,0-0.1,0.257-0.239,0.672
		c-0.121-0.415-0.205-0.605-0.205-0.605l-0.029,1.273c-2.454,7.44-7.874,38.571-31.546,81.803
		c-14.235,25.991,4.737,49.375,30.664,50.179C83.862,150.129,103.673,125.127,89.417,99.189z"/>
	<path fill="#0F2863" d="M89.283,99.128C66.61,57.889,61.586,24.709,59.334,17.146l-0.07-0.96c0,0-0.103,0.26-0.241,0.674
		c-0.12-0.414-0.207-0.598-0.207-0.598l-0.032,1.272c-2.448,7.418-7.849,38.452-31.446,81.544
		c-14.194,25.912,4.709,49.225,30.552,50.03C83.733,149.915,103.484,124.99,89.283,99.128z"/>
	<path fill="#102963" d="M89.148,99.066c-22.585-41.11-27.585-74.244-29.829-81.785l-0.081-0.913c0,0-0.106,0.264-0.244,0.677
		c-0.12-0.413-0.209-0.591-0.209-0.591l-0.035,1.272c-2.442,7.396-7.824,38.333-31.347,81.284
		c-14.152,25.835,4.682,49.079,30.44,49.884C83.605,149.699,103.295,124.854,89.148,99.066z"/>
	<path fill="#112964" d="M89.013,99.005c-22.498-40.98-27.474-74.07-29.708-81.588l-0.092-0.866c0,0-0.109,0.267-0.247,0.679
		c-0.119-0.412-0.211-0.584-0.211-0.584l-0.037,1.272c-2.436,7.373-7.799,38.214-31.247,81.025
		c-14.112,25.757,4.655,48.932,30.33,49.736C83.476,149.484,103.106,124.717,89.013,99.005z"/>
	<path fill="#122A64" d="M88.878,98.943c-22.41-40.852-27.364-73.896-29.589-81.392l-0.102-0.819c0,0-0.112,0.271-0.25,0.682
		c-0.119-0.411-0.213-0.576-0.213-0.576l-0.039,1.271c-2.43,7.351-7.774,38.095-31.147,80.767
		c-14.07,25.679,4.627,48.782,30.218,49.588C83.347,149.27,102.917,124.579,88.878,98.943z"/>
	<path fill="#132A64" d="M88.743,98.882C66.42,58.16,61.49,25.16,59.274,17.688l-0.113-0.772c0,0-0.115,0.273-0.251,0.684
		c-0.119-0.41-0.215-0.569-0.215-0.569l-0.042,1.271c-2.423,7.328-7.75,37.976-31.048,80.508
		c-14.029,25.6,4.601,48.633,30.106,49.439C83.218,149.055,102.728,124.442,88.743,98.882z"/>
	<path fill="#142B65" d="M88.608,98.82C66.373,58.228,61.466,25.272,59.259,17.822l-0.124-0.725c0,0-0.118,0.277-0.254,0.685
		c-0.118-0.408-0.217-0.562-0.217-0.562l-0.044,1.272c-2.417,7.305-7.725,37.855-30.949,80.247
		c-13.987,25.522,4.574,48.484,29.996,49.293S102.538,124.306,88.608,98.82z"/>
	<path fill="#152B65" d="M88.473,98.759C66.326,58.295,61.442,25.385,59.244,17.958l-0.134-0.679c0,0-0.121,0.28-0.257,0.688
		c-0.117-0.407-0.218-0.555-0.218-0.555l-0.047,1.272c-2.411,7.282-7.7,37.736-30.85,79.988
		c-13.946,25.443,4.546,48.338,29.884,49.146C82.96,148.626,102.349,124.168,88.473,98.759z"/>
	<path fill="#162C66" d="M88.338,98.697c-22.06-40.335-26.92-73.199-29.108-80.604l-0.145-0.631c0,0-0.125,0.284-0.26,0.689
		c-0.117-0.406-0.22-0.547-0.22-0.547l-0.049,1.271c-2.405,7.261-7.676,37.618-30.75,79.73
		c-13.905,25.365,4.52,48.188,29.772,48.997C82.831,148.411,102.16,124.031,88.338,98.697z"/>
	<path fill="#172C66" d="M88.203,98.636C66.23,58.431,61.394,25.61,59.214,18.228l-0.156-0.584c0,0-0.127,0.287-0.262,0.692
		c-0.116-0.405-0.223-0.54-0.223-0.54l-0.052,1.271c-2.399,7.238-7.651,37.499-30.651,79.471
		c-13.863,25.288,4.493,48.042,29.662,48.851S101.971,123.895,88.203,98.636z"/>
	<path fill="#182D67" d="M88.068,98.574C66.183,58.498,61.37,25.724,59.199,18.363l-0.166-0.537c0,0-0.13,0.291-0.266,0.694
		c-0.115-0.403-0.224-0.532-0.224-0.532l-0.054,1.27c-2.393,7.216-7.626,37.38-30.551,79.212
		c-13.822,25.21,4.465,47.896,29.55,48.703C82.574,147.98,101.782,123.758,88.068,98.574z"/>
	<path fill="#182E67" d="M87.933,98.513C66.136,58.566,61.346,25.836,59.185,18.498l-0.177-0.49c0,0-0.133,0.295-0.269,0.696
		c-0.115-0.402-0.226-0.524-0.226-0.524l-0.057,1.271c-2.386,7.192-7.601,37.26-30.451,78.952
		c-13.781,25.131,4.438,47.746,29.438,48.555C82.445,147.766,101.593,123.621,87.933,98.513z"/>
	<path fill="#192E67" d="M87.798,98.451c-21.71-39.817-26.477-72.503-28.629-79.817l-0.188-0.443c0,0-0.136,0.298-0.271,0.698
		c-0.115-0.4-0.228-0.518-0.228-0.518l-0.06,1.271c-2.38,7.169-7.576,37.141-30.352,78.692c-13.74,25.054,4.411,47.6,29.328,48.408
		S101.404,123.484,87.798,98.451z"/>
	<path fill="#1A2F68" d="M87.663,98.39C66.041,58.701,61.297,26.062,59.154,18.769l-0.198-0.396c0,0-0.14,0.301-0.273,0.7
		c-0.114-0.399-0.23-0.511-0.23-0.511l-0.063,1.271c-2.374,7.147-7.551,37.021-30.251,78.434
		c-13.698,24.975,4.384,47.453,29.216,48.261C82.188,147.335,101.214,123.347,87.663,98.39z"/>
	<path fill="#1B2F68" d="M87.528,98.328C65.994,58.77,61.273,26.174,59.14,18.904l-0.209-0.35c0,0-0.143,0.305-0.276,0.703
		c-0.113-0.398-0.231-0.504-0.231-0.504l-0.065,1.271c-2.367,7.125-7.526,36.902-30.153,78.175
		c-13.656,24.896,4.357,47.303,29.105,48.112S101.025,123.21,87.528,98.328z"/>
	<path fill="#1C3069" d="M87.394,98.267c-21.447-39.43-26.145-71.979-28.269-79.228l-0.219-0.302c0,0-0.146,0.308-0.279,0.705
		c-0.113-0.397-0.233-0.496-0.233-0.496l-0.068,1.27c-2.361,7.103-7.501,36.783-30.053,77.915
		c-13.615,24.819,4.33,47.157,28.994,47.966C81.93,146.905,100.836,123.073,87.394,98.267z"/>
	<path fill="#1D3069" d="M87.258,98.205c-21.359-39.3-26.033-71.806-28.148-79.03l-0.231-0.256c0,0-0.148,0.312-0.281,0.707
		c-0.113-0.396-0.236-0.488-0.236-0.488l-0.07,1.27c-2.355,7.079-7.476,36.664-29.954,77.656
		c-13.574,24.741,4.303,47.008,28.882,47.817C81.801,146.69,100.647,122.936,87.258,98.205z"/>
	<path fill="#1D316A" d="M87.124,98.144C65.852,58.973,61.201,26.512,59.095,19.31l-0.241-0.208c0,0-0.151,0.314-0.284,0.709
		c-0.112-0.395-0.238-0.48-0.238-0.48l-0.073,1.269c-2.349,7.057-7.452,36.544-29.854,77.397
		c-13.533,24.662,4.275,46.86,28.771,47.67C81.672,146.476,100.458,122.799,87.124,98.144z"/>
	<path fill="#1E316A" d="M86.988,98.082C65.804,59.04,61.177,26.625,59.08,19.445l-0.251-0.162c0,0-0.154,0.318-0.287,0.712
		c-0.112-0.394-0.239-0.474-0.239-0.474l-0.075,1.269c-2.343,7.034-7.427,36.426-29.755,77.138
		c-13.491,24.585,4.249,46.715,28.66,47.523C81.543,146.26,100.269,122.662,86.988,98.082z"/>
	<path fill="#1F326B" d="M86.854,98.021C65.756,59.108,61.153,26.737,59.065,19.58l-0.262-0.114c0,0-0.158,0.321-0.29,0.714
		c-0.111-0.393-0.241-0.467-0.241-0.467l-0.078,1.269c-2.336,7.012-7.402,36.307-29.655,76.879
		c-13.45,24.506,4.221,46.564,28.548,47.375S100.08,122.524,86.854,98.021z"/>
	<path fill="#20336B" d="M86.719,97.959C65.709,59.176,61.128,26.85,59.049,19.715l-0.273-0.066c0,0-0.16,0.325-0.292,0.716
		c-0.111-0.392-0.243-0.459-0.243-0.459l-0.081,1.268c-2.331,6.989-7.377,36.188-29.556,76.62
		c-13.409,24.428,4.193,46.418,28.437,47.228C81.285,145.83,99.891,122.389,86.719,97.959z"/>
	<path fill="#21336B" d="M86.584,97.897C65.662,59.244,61.104,26.963,59.035,19.851l-0.284-0.02c0,0-0.163,0.328-0.294,0.717
		c-0.11-0.39-0.246-0.451-0.246-0.451l-0.083,1.268c-2.324,6.967-7.352,36.067-29.456,76.361
		c-13.368,24.35,4.167,46.271,28.326,47.08C81.156,145.614,99.701,122.251,86.584,97.897z"/>
	<path fill="#21346C" d="M86.449,97.836C65.614,59.312,61.081,27.075,59.02,19.986l-0.295,0.026c0,0-0.166,0.332-0.297,0.72
		c-0.11-0.389-0.247-0.444-0.247-0.444l-0.086,1.268c-2.318,6.944-7.328,35.949-29.356,76.103
		c-13.326,24.271,4.139,46.12,28.215,46.932C81.027,145.401,99.512,122.114,86.449,97.836z"/>
	<path fill="#22346C" d="M86.313,97.774C65.567,59.379,61.056,27.188,59.004,20.121L58.7,20.194c0,0-0.169,0.336-0.3,0.723
		c-0.109-0.388-0.249-0.438-0.249-0.438l-0.088,1.268c-2.312,6.922-7.302,35.83-29.257,75.843
		c-13.284,24.193,4.113,45.974,28.104,46.785C80.898,145.187,99.323,121.978,86.313,97.774z"/>
	<path fill="#23356D" d="M86.179,97.713C65.52,59.447,61.032,27.301,58.99,20.256l-0.316,0.121c0,0-0.172,0.339-0.302,0.725
		c-0.109-0.386-0.251-0.43-0.251-0.43l-0.091,1.267c-2.306,6.899-7.278,35.71-29.158,75.584
		c-13.244,24.115,4.085,45.827,27.992,46.638C80.77,144.971,99.134,121.84,86.179,97.713z"/>
	<path fill="#24356D" d="M86.044,97.651c-20.572-38.137-25.036-70.237-27.069-77.26l-0.327,0.167c0,0-0.175,0.343-0.305,0.727
		c-0.108-0.384-0.252-0.422-0.252-0.422l-0.094,1.267c-2.299,6.877-7.253,35.591-29.058,75.325
		c-13.202,24.036,4.058,45.679,27.881,46.489C80.641,144.755,98.945,121.703,86.044,97.651z"/>
	<path fill="#24366E" d="M85.909,97.59C65.425,59.582,60.984,27.526,58.96,20.527l-0.337,0.214c0,0-0.178,0.346-0.308,0.729
		c-0.108-0.384-0.254-0.415-0.254-0.415l-0.097,1.266c-2.293,6.854-7.228,35.472-28.958,75.065
		c-13.161,23.959,4.031,45.531,27.77,46.343C80.512,144.541,98.756,121.566,85.909,97.59z"/>
	<path fill="#25376E" d="M85.774,97.528C65.377,59.65,60.96,27.639,58.945,20.662l-0.348,0.262c0,0-0.182,0.35-0.311,0.73
		c-0.107-0.382-0.257-0.407-0.257-0.407l-0.099,1.266c-2.287,6.832-7.203,35.354-28.859,74.807
		c-13.119,23.881,4.004,45.383,27.658,46.194C80.383,144.325,98.567,121.43,85.774,97.528z"/>
	<path fill="#26376F" d="M85.639,97.467C65.33,59.718,60.936,27.752,58.93,20.797l-0.358,0.31c0,0-0.185,0.352-0.313,0.732
		c-0.107-0.381-0.258-0.4-0.258-0.4l-0.102,1.266c-2.281,6.81-7.178,35.233-28.759,74.548
		c-13.079,23.803,3.977,45.234,27.547,46.047C80.254,144.111,98.378,121.292,85.639,97.467z"/>
	<path fill="#27386F" d="M85.504,97.405c-20.221-37.62-24.592-69.541-26.589-76.473l-0.369,0.355c0,0-0.188,0.356-0.315,0.735
		c-0.107-0.38-0.261-0.394-0.261-0.394l-0.104,1.266c-2.275,6.786-7.153,35.114-28.66,74.288c-13.037,23.725,3.95,45.09,27.436,45.9
		C80.125,143.895,98.188,121.155,85.504,97.405z"/>
	<path fill="#283870" d="M85.369,97.344C65.235,59.854,60.888,27.978,58.9,21.068l-0.379,0.402c0,0-0.191,0.358-0.319,0.736
		c-0.106-0.378-0.262-0.385-0.262-0.385l-0.106,1.266c-2.269,6.764-7.128,34.994-28.561,74.028
		c-12.996,23.646,3.923,44.938,27.324,45.752C79.997,143.682,97.999,121.019,85.369,97.344z"/>
	<path fill="#283970" d="M85.234,97.282C65.188,59.921,60.864,28.09,58.885,21.203l-0.391,0.449c0,0-0.194,0.363-0.321,0.739
		c-0.105-0.377-0.264-0.378-0.264-0.378L57.8,23.279c-2.262,6.74-7.104,34.876-28.46,73.77
		c-12.955,23.567,3.895,44.792,27.213,45.604C79.867,143.466,97.81,120.882,85.234,97.282z"/>
	<path fill="#293970" d="M85.099,97.221C65.14,59.988,60.84,28.202,58.87,21.338l-0.401,0.497c0,0-0.197,0.366-0.324,0.741
		c-0.105-0.376-0.266-0.371-0.266-0.371l-0.111,1.265c-2.256,6.719-7.079,34.757-28.361,73.511
		c-12.913,23.49,3.868,44.646,27.102,45.458C79.739,143.25,97.621,120.745,85.099,97.221z"/>
	<path fill="#2A3A71" d="M84.964,97.159C65.093,60.057,60.815,28.314,58.855,21.474l-0.412,0.544c0,0-0.2,0.369-0.326,0.743
		c-0.104-0.375-0.269-0.363-0.269-0.363l-0.114,1.264c-2.25,6.696-7.054,34.638-28.262,73.252
		c-12.872,23.412,3.841,44.496,26.99,45.31C79.61,143.036,97.432,120.607,84.964,97.159z"/>
	<path fill="#2B3A71" d="M84.829,97.098C65.045,60.124,60.792,28.428,58.84,21.608l-0.422,0.591c0,0-0.203,0.373-0.33,0.746
		c-0.104-0.373-0.27-0.356-0.27-0.356l-0.117,1.264c-2.244,6.674-7.029,34.519-28.162,72.993
		c-12.83,23.334,3.814,44.35,26.879,45.162C79.481,142.82,97.243,120.471,84.829,97.098z"/>
	<path fill="#2B3B72" d="M84.694,97.036C64.998,60.192,60.768,28.54,58.825,21.744l-0.433,0.638c0,0-0.206,0.376-0.332,0.747
		c-0.104-0.372-0.272-0.348-0.272-0.348l-0.119,1.264c-2.237,6.65-7.005,34.398-28.063,72.732
		c-12.789,23.256,3.787,44.204,26.768,45.016C79.353,142.604,97.054,120.334,84.694,97.036z"/>
	<path fill="#2C3C72" d="M84.56,96.975C64.951,60.26,60.743,28.653,58.81,21.879l-0.443,0.685c0,0-0.209,0.38-0.334,0.75
		c-0.104-0.37-0.274-0.341-0.274-0.341l-0.122,1.264c-2.231,6.628-6.979,34.279-27.963,72.474
		c-12.748,23.178,3.759,44.054,26.657,44.867C79.224,142.391,96.865,120.197,84.56,96.975z"/>
	<path fill="#2D3C73" d="M84.424,96.913C64.903,60.327,60.719,28.766,58.795,22.015l-0.454,0.731c0,0-0.212,0.383-0.337,0.752
		c-0.103-0.369-0.276-0.334-0.276-0.334l-0.125,1.264c-2.226,6.605-6.955,34.16-27.864,72.215
		c-12.706,23.1,3.733,43.907,26.545,44.72C79.095,142.175,96.675,120.06,84.424,96.913z"/>
	<path fill="#2D3D73" d="M84.29,96.852C64.856,60.396,60.695,28.879,58.78,22.149l-0.465,0.778c0,0-0.215,0.387-0.34,0.755
		c-0.102-0.368-0.277-0.327-0.277-0.327l-0.128,1.264c-2.219,6.583-6.93,34.041-27.764,71.956
		c-12.665,23.021,3.705,43.757,26.434,44.571C78.966,141.961,96.486,119.923,84.29,96.852z"/>
	<path fill="#2E3D74" d="M84.154,96.79C64.809,60.463,60.671,28.991,58.765,22.285L58.29,23.11c0,0-0.218,0.391-0.342,0.757
		c-0.102-0.367-0.28-0.319-0.28-0.319l-0.13,1.263c-2.212,6.561-6.905,33.922-27.665,71.697
		c-12.624,22.942,3.679,43.61,26.323,44.424C78.837,141.745,96.297,119.786,84.154,96.79z"/>
	<path fill="#2F3E74" d="M84.02,96.729C64.761,60.531,60.647,29.104,58.75,22.42l-0.486,0.873c0,0-0.221,0.393-0.345,0.758
		c-0.101-0.365-0.282-0.312-0.282-0.312l-0.132,1.263c-2.207,6.537-6.88,33.803-27.565,71.438
		c-12.583,22.865,3.651,43.464,26.211,44.277C78.708,141.53,96.108,119.648,84.02,96.729z"/>
	<path fill="#303F75" d="M83.885,96.667C64.713,60.599,60.623,29.216,58.735,22.555l-0.497,0.92c0,0-0.224,0.397-0.348,0.761
		c-0.101-0.364-0.284-0.305-0.284-0.305l-0.135,1.263c-2.2,6.515-6.855,33.684-27.465,71.179
		c-12.542,22.786,3.624,43.314,26.1,44.129C78.579,141.315,95.919,119.512,83.885,96.667z"/>
	<path fill="#303F75" d="M83.75,96.605C64.666,60.666,60.599,29.329,58.72,22.69l-0.507,0.967c0,0-0.227,0.4-0.351,0.763
		c-0.1-0.363-0.285-0.297-0.285-0.297l-0.138,1.262c-2.194,6.493-6.831,33.564-27.366,70.92
		c-12.5,22.708,3.597,43.168,25.989,43.981C78.451,141.1,95.729,119.375,83.75,96.605z"/>
	<path fill="#314076" d="M83.615,96.544c-18.997-35.81-23.04-67.103-24.91-73.718l-0.518,1.013c0,0-0.23,0.404-0.353,0.766
		c-0.1-0.362-0.287-0.29-0.287-0.29l-0.141,1.262c-2.188,6.471-6.805,33.445-27.266,70.66
		c-12.458,22.631,3.569,43.021,25.877,43.835C78.321,140.885,95.541,119.238,83.615,96.544z"/>
	<path fill="#324076" d="M83.479,96.482C64.571,60.802,60.551,29.555,58.69,22.961l-0.529,1.061c0,0-0.233,0.407-0.356,0.768
		c-0.1-0.361-0.289-0.283-0.289-0.283l-0.143,1.262c-2.182,6.447-6.781,33.326-27.167,70.401
		c-12.417,22.552,3.542,42.872,25.766,43.687C78.192,140.67,95.352,119.102,83.479,96.482z"/>
	<path fill="#334177" d="M83.345,96.421C64.596,60.832,60.526,29.667,58.675,23.096l-0.539,1.107c0,0-0.237,0.411-0.359,0.77
		c-0.099-0.359-0.291-0.275-0.291-0.275l-0.146,1.262c-2.175,6.425-6.756,33.207-27.067,70.143
		c-12.376,22.474,3.516,42.724,25.655,43.539C78.064,140.456,95.208,118.939,83.345,96.421z"/>
	<path fill="#334177" d="M83.21,96.359c-18.66-35.461-22.708-66.58-24.55-73.128l-0.55,1.154c0,0-0.239,0.414-0.361,0.771
		c-0.099-0.358-0.293-0.268-0.293-0.268l-0.148,1.261c-2.169,6.402-6.731,33.088-26.968,69.883
		c-12.334,22.396,3.489,42.577,25.544,43.393C77.935,140.241,95.02,118.803,83.21,96.359z"/>
	<path fill="#344277" d="M83.075,96.298C64.504,60.966,60.479,29.893,58.646,23.367l-0.561,1.201c0,0-0.242,0.417-0.364,0.773
		c-0.098-0.357-0.295-0.261-0.295-0.261l-0.15,1.261c-2.163,6.38-6.706,32.969-26.869,69.624
		c-12.293,22.317,3.461,42.428,25.433,43.244C77.806,140.026,94.831,118.666,83.075,96.298z"/>
	<path fill="#354378" d="M82.94,96.236C64.458,61.032,60.454,30.005,58.63,23.502l-0.571,1.248c0,0-0.245,0.422-0.367,0.776
		c-0.098-0.355-0.297-0.253-0.297-0.253l-0.153,1.26c-2.157,6.357-6.681,32.85-26.769,69.365
		c-12.252,22.239,3.434,42.281,25.321,43.097C77.677,139.811,94.643,118.527,82.94,96.236z"/>
	<path fill="#364378" d="M82.805,96.174C64.412,61.1,60.43,30.118,58.615,23.637l-0.582,1.296c0,0-0.249,0.424-0.37,0.777
		c-0.097-0.354-0.298-0.245-0.298-0.245l-0.156,1.26c-2.151,6.335-6.657,32.73-26.669,69.105
		c-12.211,22.162,3.407,42.132,25.209,42.949C77.548,139.597,94.455,118.391,82.805,96.174z"/>
	<path fill="#364479" d="M82.67,96.113C64.365,61.167,60.406,30.23,58.601,23.772l-0.593,1.342c0,0-0.251,0.429-0.372,0.781
		c-0.096-0.354-0.3-0.239-0.3-0.239l-0.158,1.26c-2.145,6.313-6.632,32.611-26.57,68.847c-12.169,22.083,3.38,41.984,25.098,42.802
		C77.419,139.381,94.267,118.253,82.67,96.113z"/>
	<path fill="#374479" d="M82.535,96.052C64.32,61.234,60.381,30.344,58.585,23.908l-0.603,1.389c0,0-0.255,0.432-0.375,0.782
		c-0.096-0.352-0.303-0.231-0.303-0.231l-0.161,1.26c-2.138,6.29-6.607,32.492-26.47,68.588
		c-12.128,22.005,3.353,41.838,24.987,42.654C77.291,139.165,94.078,118.116,82.535,96.052z"/>
	<path fill="#38457A" d="M82.4,95.99C64.273,61.301,60.357,30.456,58.57,24.043l-0.614,1.436c0,0-0.257,0.436-0.377,0.785
		c-0.096-0.351-0.305-0.225-0.305-0.225l-0.163,1.26c-2.132,6.268-6.582,32.373-26.371,68.328
		c-12.086,21.928,3.325,41.689,24.875,42.507C77.162,138.951,93.89,117.979,82.4,95.99z"/>
	<path fill="#38457A" d="M82.265,95.929c-18.038-34.562-21.932-65.36-23.709-71.751l-0.625,1.483c0,0-0.26,0.438-0.38,0.787
		c-0.095-0.35-0.306-0.217-0.306-0.217l-0.167,1.259c-2.125,6.245-6.557,32.254-26.271,68.069
		c-12.045,21.85,3.298,41.542,24.765,42.359C77.033,138.735,93.702,117.842,82.265,95.929z"/>
	<path fill="#39467B" d="M82.13,95.867C64.181,61.436,60.309,30.682,58.54,24.313l-0.635,1.53c0,0-0.263,0.441-0.383,0.788
		c-0.094-0.348-0.308-0.209-0.308-0.209l-0.168,1.259c-2.12,6.223-6.532,32.135-26.172,67.811
		c-12.004,21.771,3.271,41.396,24.653,42.212C76.904,138.521,93.513,117.704,82.13,95.867z"/>
	<path fill="#3A477B" d="M81.996,95.806c-17.86-34.304-21.71-65.012-23.47-71.357l-0.646,1.577c0,0-0.267,0.445-0.386,0.791
		c-0.094-0.347-0.31-0.201-0.31-0.201l-0.172,1.258c-2.113,6.2-6.507,32.016-26.072,67.552
		c-11.962,21.692,3.245,41.245,24.542,42.063C76.775,138.306,93.325,117.566,81.996,95.806z"/>
	<path fill="#3B477C" d="M81.86,95.744c-17.771-34.175-21.599-64.838-23.35-71.16l-0.657,1.624c0,0-0.27,0.448-0.388,0.793
		c-0.094-0.345-0.312-0.194-0.312-0.194l-0.174,1.258c-2.107,6.178-6.482,31.896-25.973,67.293
		c-11.921,21.613,3.217,41.099,24.431,41.916C76.646,138.09,93.137,117.43,81.86,95.744z"/>
	<path fill="#3B487C" d="M81.725,95.683C64.042,61.637,60.237,31.02,58.495,24.719l-0.667,1.672c0,0-0.273,0.451-0.391,0.795
		c-0.093-0.345-0.314-0.188-0.314-0.188l-0.176,1.258c-2.101,6.154-6.458,31.777-25.873,67.033
		c-11.88,21.536,3.189,40.953,24.319,41.77C76.517,137.875,92.948,117.291,81.725,95.683z"/>
	<path fill="#3C487D" d="M81.59,95.621C63.996,61.704,60.213,31.132,58.48,24.854l-0.678,1.718c0,0-0.275,0.455-0.394,0.798
		c-0.092-0.343-0.315-0.18-0.315-0.18l-0.179,1.257c-2.095,6.132-6.433,31.658-25.774,66.774
		c-11.838,21.458,3.163,40.803,24.208,41.621C76.388,137.66,92.76,117.154,81.59,95.621z"/>
	<path fill="#3D497D" d="M81.455,95.56C63.95,61.771,60.189,31.245,58.466,24.989l-0.688,1.765c0,0-0.278,0.459-0.396,0.801
		c-0.092-0.343-0.317-0.173-0.317-0.173l-0.182,1.257c-2.089,6.109-6.408,31.539-25.674,66.516
		c-11.798,21.379,3.135,40.656,24.096,41.474C76.26,137.445,92.572,117.018,81.455,95.56z"/>
	<path fill="#3E4A7E" d="M81.32,95.498c-17.416-33.66-21.155-64.141-22.87-70.373l-0.699,1.812c0,0-0.281,0.463-0.398,0.802
		c-0.092-0.34-0.319-0.165-0.319-0.165l-0.184,1.257c-2.083,6.087-6.383,31.42-25.575,66.256
		c-11.756,21.302,3.108,40.507,23.985,41.326C76.13,137.23,92.383,116.88,81.32,95.498z"/>
	<path fill="#3E4A7E" d="M81.186,95.436C63.859,61.904,60.141,31.471,58.436,25.26l-0.71,1.859c0,0-0.284,0.465-0.401,0.804
		c-0.091-0.34-0.321-0.157-0.321-0.157l-0.187,1.256c-2.076,6.064-6.358,31.301-25.476,65.997
		c-11.714,21.224,3.082,40.36,23.875,41.179C76.001,137.016,92.195,116.742,81.186,95.436z"/>
	<path fill="#3F4B7F" d="M81.05,95.375C63.812,61.973,60.117,31.583,58.421,25.396L57.7,27.301c0,0-0.288,0.47-0.404,0.807
		c-0.09-0.338-0.323-0.15-0.323-0.15l-0.189,1.256c-2.07,6.042-6.334,31.182-25.376,65.738
		c-11.673,21.145,3.054,40.212,23.763,41.031C75.874,136.802,92.007,116.604,81.05,95.375z"/>
	<path fill="#404B7F" d="M80.916,95.313C63.767,62.039,60.093,31.695,58.405,25.53l-0.73,1.953c0,0-0.291,0.473-0.407,0.809
		c-0.09-0.337-0.325-0.144-0.325-0.144l-0.191,1.256c-2.064,6.02-6.309,31.063-25.276,65.479
		c-11.632,21.066,3.027,40.063,23.651,40.883C75.744,136.585,91.819,116.468,80.916,95.313z"/>
	<path fill="#414C80" d="M80.78,95.252C63.72,62.106,60.068,31.809,58.391,25.666l-0.741,2c0,0-0.294,0.476-0.41,0.811
		c-0.089-0.336-0.327-0.136-0.327-0.136l-0.194,1.255c-2.058,5.997-6.284,30.943-25.177,65.22
		c-11.591,20.989,3,39.916,23.541,40.736C75.615,136.371,91.63,116.331,80.78,95.252z"/>
	<path fill="#414D80" d="M80.646,95.19c-16.973-33.017-20.601-63.27-22.27-69.39l-0.753,2.047c0,0-0.296,0.479-0.412,0.813
		c-0.089-0.334-0.329-0.128-0.329-0.128l-0.197,1.256c-2.051,5.974-6.259,30.823-25.077,64.96
		c-11.549,20.91,2.973,39.769,23.429,40.588C75.486,136.155,91.442,116.192,80.646,95.19z"/>
	<path fill="#424D81" d="M80.511,95.129c-16.883-32.888-20.49-63.096-22.15-69.193l-0.763,2.095c0,0-0.3,0.482-0.415,0.814
		c-0.088-0.333-0.331-0.12-0.331-0.12l-0.199,1.255c-2.045,5.951-6.234,30.704-24.978,64.701
		c-11.508,20.832,2.946,39.621,23.317,40.44C75.358,135.939,91.253,116.056,80.511,95.129z"/>
	<path fill="#434E81" d="M80.375,95.067c-16.794-32.76-20.379-62.921-22.03-68.996l-0.773,2.141c0,0-0.303,0.486-0.418,0.817
		c-0.088-0.332-0.333-0.113-0.333-0.113l-0.203,1.254c-2.039,5.93-6.209,30.586-24.878,64.442
		c-11.467,20.755,2.918,39.476,23.207,40.294C75.229,135.725,91.065,115.919,80.375,95.067z"/>
	<path fill="#444F82" d="M80.241,95.006c-16.706-32.631-20.269-62.747-21.91-68.799l-0.784,2.188c0,0-0.306,0.49-0.421,0.819
		c-0.087-0.331-0.334-0.106-0.334-0.106l-0.206,1.254c-2.032,5.906-6.184,30.467-24.778,64.184
		c-11.426,20.677,2.891,39.328,23.095,40.146C75.1,135.509,90.877,115.781,80.241,95.006z"/>
	<path fill="#444F82" d="M80.105,94.943c-16.616-32.5-20.157-62.572-21.79-68.602l-0.795,2.234c0,0-0.309,0.494-0.423,0.822
		c-0.087-0.33-0.337-0.1-0.337-0.1l-0.207,1.254c-2.026,5.885-6.16,30.348-24.679,63.924c-11.384,20.599,2.864,39.178,22.983,39.999
		C74.971,135.296,90.689,115.645,80.105,94.943z"/>
	<path fill="#455083" d="M79.971,94.883C63.443,62.51,59.924,32.484,58.301,26.477l-0.806,2.282c0,0-0.312,0.497-0.425,0.823
		c-0.087-0.328-0.339-0.092-0.339-0.092l-0.21,1.255c-2.02,5.861-6.135,30.228-24.58,63.664
		c-11.343,20.521,2.837,39.028,22.873,39.851C74.842,135.082,90.5,115.506,79.971,94.883z"/>
	<path fill="#465083" d="M79.836,94.821C63.396,62.577,59.9,32.597,58.286,26.612l-0.816,2.329c0,0-0.314,0.5-0.429,0.825
		c-0.086-0.327-0.34-0.084-0.34-0.084l-0.212,1.254c-2.014,5.839-6.11,30.108-24.48,63.405
		c-11.301,20.441,2.81,38.881,22.761,39.703C74.713,134.866,90.312,115.369,79.836,94.821z"/>
	<path fill="#475184" d="M79.701,94.76C63.35,62.645,59.876,32.71,58.271,26.747l-0.826,2.376c0,0-0.318,0.504-0.432,0.828
		c-0.085-0.326-0.342-0.077-0.342-0.077l-0.215,1.254c-2.008,5.815-6.085,29.989-24.38,63.146
		c-11.26,20.365,2.782,38.735,22.65,39.557C74.584,134.65,90.124,115.231,79.701,94.76z"/>
	<path fill="#475284" d="M79.566,94.698C63.305,62.711,59.852,32.822,58.256,26.883l-0.838,2.423c0,0-0.32,0.507-0.433,0.829
		c-0.085-0.324-0.344-0.068-0.344-0.068l-0.218,1.253c-2.002,5.793-6.061,29.87-24.281,62.888
		c-11.219,20.285,2.755,38.588,22.539,39.408C74.456,134.436,89.936,115.095,79.566,94.698z"/>
	<path fill="#485285" d="M79.431,94.637c-16.174-31.858-19.603-61.701-21.19-67.619l-0.848,2.47c0,0-0.324,0.511-0.437,0.833
		c-0.084-0.323-0.346-0.063-0.346-0.063l-0.221,1.253c-1.995,5.771-6.035,29.751-24.181,62.628
		c-11.177,20.208,2.729,38.438,22.427,39.261C74.327,134.221,89.747,114.957,79.431,94.637z"/>
	<path fill="#495385" d="M79.296,94.574c-16.084-31.729-19.492-61.526-21.07-67.421l-0.858,2.517c0,0-0.327,0.514-0.439,0.834
		c-0.084-0.321-0.348-0.055-0.348-0.055l-0.223,1.253c-1.989,5.748-6.011,29.632-24.082,62.369
		c-11.137,20.129,2.701,38.292,22.316,39.113C74.198,134.005,89.559,114.82,79.296,94.574z"/>
	<path fill="#495486" d="M79.161,94.514C63.166,62.913,59.779,33.16,58.211,27.288l-0.869,2.563c0,0-0.331,0.518-0.442,0.837
		c-0.083-0.32-0.35-0.048-0.35-0.048l-0.226,1.253c-1.983,5.726-5.986,29.513-23.982,62.11
		c-11.095,20.051,2.674,38.143,22.205,38.965C74.069,133.791,89.371,114.683,79.161,94.514z"/>
	<path fill="#4A5487" d="M79.026,94.452C63.12,62.979,59.755,33.273,58.196,27.424l-0.88,2.61c0,0-0.333,0.521-0.444,0.839
		c-0.083-0.319-0.352-0.04-0.352-0.04l-0.229,1.252c-1.976,5.703-5.96,29.394-23.883,61.851
		c-11.053,19.973,2.647,37.996,22.094,38.818C73.94,133.575,89.182,114.546,79.026,94.452z"/>
	<path fill="#4B5587" d="M78.892,94.391c-15.818-31.343-19.16-61.005-20.711-66.832l-0.891,2.658c0,0-0.336,0.523-0.447,0.84
		c-0.082-0.317-0.354-0.032-0.354-0.032l-0.23,1.252c-1.971,5.681-5.937,29.274-23.783,61.592
		c-11.012,19.896,2.62,37.85,21.982,38.671C73.811,133.36,88.994,114.407,78.892,94.391z"/>
	<path fill="#4C5688" d="M78.756,94.329c-15.729-31.214-19.049-60.83-20.59-66.636l-0.901,2.705c0,0-0.339,0.527-0.45,0.843
		c-0.082-0.316-0.355-0.025-0.355-0.025l-0.233,1.252c-1.964,5.658-5.911,29.155-23.684,61.333
		c-10.971,19.816,2.593,37.702,21.871,38.523C73.683,133.145,88.805,114.271,78.756,94.329z"/>
	<path fill="#4C5688" d="M78.621,94.268C62.98,63.182,59.683,33.611,58.151,27.829l-0.912,2.752c0,0-0.343,0.53-0.453,0.845
		c-0.082-0.315-0.357-0.018-0.357-0.018l-0.236,1.251c-1.958,5.636-5.886,29.036-23.584,61.073
		c-10.929,19.739,2.566,37.554,21.759,38.376C73.554,132.931,88.617,114.134,78.621,94.268z"/>
	<path fill="#4D5789" d="M78.486,94.205c-15.552-30.956-18.827-60.48-20.351-66.241l-0.922,2.799c0,0-0.346,0.534-0.456,0.848
		c-0.081-0.314-0.359-0.011-0.359-0.011l-0.239,1.251c-1.952,5.613-5.861,28.917-23.484,60.814
		c-10.889,19.66,2.538,37.403,21.648,38.228C73.424,132.716,88.429,113.995,78.486,94.205z"/>
	<path fill="#4E5789" d="M78.352,94.145C62.888,63.316,59.635,33.836,58.121,28.1l-0.934,2.846c0,0-0.348,0.538-0.458,0.85
		c-0.08-0.313-0.361-0.004-0.361-0.004l-0.241,1.251c-1.946,5.591-5.836,28.798-23.385,60.556
		c-10.847,19.582,2.512,37.257,21.537,38.08C73.296,132.5,88.24,113.858,78.352,94.145z"/>
	<path fill="#4F588A" d="M78.217,94.083c-15.375-30.7-18.606-60.134-20.111-65.849l-0.944,2.893c0,0-0.352,0.542-0.461,0.852
		c-0.08-0.312-0.363,0.004-0.363,0.004l-0.244,1.251c-1.939,5.568-5.812,28.679-23.286,60.297
		c-10.806,19.503,2.484,37.11,21.425,37.933C73.167,132.285,88.052,113.722,78.217,94.083z"/>
	<path fill="#4F598A" d="M78.081,94.021c-15.286-30.57-18.494-59.96-19.99-65.651l-0.955,2.939c0,0-0.354,0.545-0.463,0.854
		c-0.08-0.31-0.365,0.012-0.365,0.012l-0.246,1.251c-1.933,5.545-5.787,28.559-23.186,60.036
		c-10.765,19.427,2.458,36.962,21.314,37.785C73.038,132.07,87.863,113.585,78.081,94.021z"/>
	<path fill="#50598B" d="M77.947,93.96C62.75,63.518,59.563,34.175,58.076,28.505l-0.965,2.987c0,0-0.357,0.548-0.466,0.855
		c-0.079-0.309-0.367,0.019-0.367,0.019l-0.249,1.25c-1.927,5.522-5.763,28.44-23.087,59.778
		c-10.723,19.348,2.43,36.813,21.203,37.638C72.909,131.856,87.675,113.447,77.947,93.96z"/>
	<path fill="#515A8B" d="M77.812,93.898c-15.108-30.313-18.273-59.611-19.75-65.258l-0.976,3.033c0,0-0.36,0.552-0.469,0.858
		c-0.078-0.308-0.368,0.026-0.368,0.026l-0.252,1.249c-1.92,5.5-5.737,28.32-22.987,59.52c-10.681,19.27,2.403,36.668,21.092,37.49
		C72.78,131.64,87.487,113.311,77.812,93.898z"/>
	<path fill="#525B8C" d="M77.677,93.836C62.657,63.652,59.514,34.4,58.046,28.775l-0.987,3.081c0,0-0.363,0.556-0.471,0.86
		c-0.079-0.307-0.371,0.033-0.371,0.033l-0.254,1.249c-1.915,5.478-5.713,28.202-22.888,59.26
		c-10.641,19.191,2.375,36.518,20.98,37.343C72.651,131.427,87.299,113.172,77.677,93.836z"/>
	<path fill="#525B8C" d="M77.542,93.775C62.611,63.721,59.49,34.513,58.031,28.91l-0.998,3.128c0,0-0.366,0.559-0.474,0.862
		c-0.078-0.305-0.373,0.041-0.373,0.041l-0.257,1.249c-1.908,5.456-5.688,28.083-22.788,59.001
		c-10.599,19.113,2.348,36.372,20.869,37.195C72.522,131.21,87.11,113.035,77.542,93.775z"/>
	<path fill="#535C8D" d="M77.407,93.713C62.565,63.787,59.466,34.625,58.016,29.046l-1.008,3.175c0,0-0.37,0.563-0.477,0.864
		c-0.077-0.304-0.375,0.048-0.375,0.048l-0.26,1.25c-1.901,5.432-5.663,27.963-22.688,58.74
		c-10.558,19.035,2.322,36.225,20.758,37.049C72.394,130.996,86.922,112.898,77.407,93.713z"/>
	<path fill="#545D8E" d="M77.272,93.652c-14.754-29.798-17.83-58.914-19.271-64.471l-1.019,3.221c0,0-0.372,0.565-0.479,0.867
		c-0.077-0.303-0.377,0.056-0.377,0.056l-0.262,1.249c-1.896,5.409-5.638,27.843-22.588,58.482
		c-10.517,18.957,2.294,36.078,20.646,36.9C72.265,130.779,86.733,112.761,77.272,93.652z"/>
	<path fill="#555E8E" d="M77.137,93.591c-14.666-29.668-17.719-58.74-19.15-64.274l-1.029,3.269c0,0-0.375,0.569-0.482,0.869
		c-0.077-0.302-0.378,0.063-0.378,0.063l-0.265,1.249c-1.89,5.387-5.612,27.725-22.489,58.223
		c-10.475,18.879,2.267,35.928,20.535,36.753C72.136,130.565,86.545,112.623,77.137,93.591z"/>
	<path fill="#555E8F" d="M77.002,93.529c-14.577-29.54-17.608-58.566-19.031-64.078l-1.04,3.316c0,0-0.378,0.572-0.484,0.871
		c-0.076-0.301-0.38,0.069-0.38,0.069l-0.267,1.249c-1.884,5.364-5.588,27.605-22.39,57.964
		c-10.434,18.801,2.24,35.779,20.424,36.604C72.008,130.35,86.356,112.486,77.002,93.529z"/>
	<path fill="#565F8F" d="M76.867,93.467C62.379,64.056,59.37,35.076,57.957,29.587l-1.051,3.362c0,0-0.381,0.576-0.488,0.874
		c-0.075-0.3-0.381,0.077-0.381,0.077l-0.27,1.247c-1.878,5.343-5.563,27.487-22.291,57.706
		c-10.392,18.722,2.213,35.631,20.313,36.457C71.878,130.136,86.168,112.35,76.867,93.467z"/>
	<path fill="#576090" d="M76.732,93.406C62.333,64.124,59.346,35.188,57.941,29.722l-1.062,3.41c0,0-0.385,0.579-0.489,0.876
		c-0.075-0.299-0.385,0.084-0.385,0.084l-0.272,1.248c-1.872,5.319-5.539,27.366-22.191,57.445
		c-10.351,18.645,2.186,35.485,20.201,36.311C71.75,129.921,85.979,112.211,76.732,93.406z"/>
	<path fill="#586090" d="M76.597,93.344C62.287,64.19,59.321,35.301,57.926,29.857l-1.072,3.457c0,0-0.388,0.582-0.493,0.877
		c-0.074-0.297-0.386,0.092-0.386,0.092l-0.274,1.248c-1.865,5.297-5.514,27.248-22.092,57.187
		C23.3,111.283,35.769,128.053,53.7,128.88C71.621,129.706,85.792,112.075,76.597,93.344z"/>
	<path fill="#586191" d="M76.462,93.283c-14.223-29.025-17.165-57.869-18.55-63.291l-1.083,3.504c0,0-0.391,0.586-0.496,0.88
		c-0.074-0.296-0.388,0.1-0.388,0.1l-0.277,1.247c-1.858,5.274-5.489,27.129-21.991,56.928
		c-10.269,18.488,2.131,35.188,19.979,36.015C71.492,129.49,85.603,111.938,76.462,93.283z"/>
	<path fill="#596291" d="M76.327,93.222C62.194,64.326,59.273,35.526,57.896,30.128l-1.093,3.55c0,0-0.394,0.59-0.498,0.883
		c-0.074-0.295-0.39,0.106-0.39,0.106l-0.28,1.247c-1.853,5.252-5.464,27.009-21.893,56.668
		c-10.227,18.41,2.104,35.04,19.867,35.867C71.363,129.276,85.414,111.801,76.327,93.222z"/>
	<path fill="#5A6292" d="M76.192,93.16C62.147,64.394,59.249,35.64,57.881,30.263l-1.104,3.599c0,0-0.397,0.592-0.5,0.884
		c-0.073-0.293-0.392,0.114-0.392,0.114l-0.283,1.246c-1.847,5.229-5.439,26.89-21.792,56.409
		c-10.186,18.332,2.078,34.893,19.756,35.72C71.234,129.061,85.226,111.663,76.192,93.16z"/>
	<path fill="#5B6393" d="M76.058,93.098C62.102,64.46,59.225,35.752,57.867,30.398l-1.115,3.645c0,0-0.399,0.597-0.503,0.887
		c-0.072-0.292-0.393,0.121-0.393,0.121l-0.285,1.246c-1.841,5.207-5.415,26.771-21.693,56.15
		c-10.145,18.253,2.05,34.746,19.645,35.572C71.105,128.846,85.038,111.525,76.058,93.098z"/>
	<path fill="#5C6493" d="M75.922,93.037C62.054,64.528,59.201,35.865,57.852,30.533l-1.125,3.691c0,0-0.403,0.6-0.506,0.889
		c-0.072-0.29-0.396,0.129-0.396,0.129l-0.288,1.246c-1.834,5.184-5.389,26.652-21.594,55.892
		c-10.104,18.175,2.023,34.599,19.533,35.425C70.977,128.63,84.85,111.389,75.922,93.037z"/>
	<path fill="#5C6494" d="M75.787,92.975c-13.778-28.38-16.61-56.997-17.95-62.307l-1.136,3.739c0,0-0.406,0.604-0.508,0.891
		c-0.072-0.289-0.398,0.136-0.398,0.136l-0.29,1.246c-1.829,5.161-5.365,26.532-21.495,55.632
		c-10.062,18.097,1.979,35.002,19.423,35.278C70.865,127.866,84.661,111.251,75.787,92.975z"/>
	<path fill="#5D6594" d="M75.652,92.914c-13.691-28.251-16.5-56.824-17.831-62.11l-1.146,3.786c0,0-0.409,0.605-0.511,0.893
		c-0.071-0.288-0.399,0.144-0.399,0.144l-0.293,1.245c-1.822,5.139-5.339,26.413-21.395,55.373
		c-10.021,18.02,1.951,34.851,19.311,35.13C70.736,127.653,84.473,111.114,75.652,92.914z"/>
	<path fill="#5E6695" d="M75.518,92.853C61.916,64.729,59.129,36.203,57.807,30.939l-1.157,3.832c0,0-0.412,0.61-0.514,0.896
		c-0.07-0.287-0.401,0.15-0.401,0.15l-0.296,1.245c-1.815,5.116-5.315,26.295-21.295,55.114
		c-9.979,17.94,1.924,34.699,19.199,34.981C70.607,127.44,84.284,110.977,75.518,92.853z"/>
	<path fill="#5F6795" d="M75.383,92.791C61.869,64.797,59.104,36.315,57.792,31.074l-1.168,3.88c0,0-0.415,0.613-0.517,0.897
		c-0.07-0.286-0.403,0.158-0.403,0.158l-0.298,1.244c-1.809,5.094-5.29,26.176-21.196,54.854
		c-9.938,17.863,1.897,34.551,19.089,34.835C70.479,127.228,84.096,110.84,75.383,92.791z"/>
	<path fill="#5F6796" d="M75.248,92.729c-13.424-27.864-16.167-56.301-17.471-61.52l-1.178,3.928c0,0-0.418,0.616-0.519,0.898
		c-0.069-0.284-0.405,0.166-0.405,0.166l-0.301,1.244c-1.803,5.071-5.266,26.056-21.096,54.596
		c-9.896,17.785,1.87,34.4,18.977,34.688C70.35,127.016,83.907,110.703,75.248,92.729z"/>
	<path fill="#606897" d="M75.113,92.668C61.776,64.932,59.057,36.541,57.762,31.345l-1.189,3.974c0,0-0.421,0.62-0.522,0.901
		c-0.069-0.282-0.407,0.173-0.407,0.173l-0.303,1.244c-1.797,5.049-5.241,25.937-20.997,54.337
		c-9.855,17.706,1.842,34.249,18.865,34.539C70.221,126.803,83.719,110.565,75.113,92.668z"/>
	<path fill="#616997" d="M74.978,92.605C61.729,65,59.032,36.653,57.747,31.48l-1.2,4.021c0,0-0.424,0.623-0.524,0.903
		c-0.069-0.282-0.409,0.18-0.409,0.18l-0.306,1.244c-1.791,5.026-5.216,25.817-20.897,54.077
		c-9.814,17.629,1.815,34.101,18.754,34.393C70.092,126.59,83.531,110.428,74.978,92.605z"/>
	<path fill="#626A98" d="M74.843,92.545c-13.16-27.478-15.834-55.778-17.111-60.93l-1.21,4.067c0,0-0.428,0.628-0.527,0.905
		c-0.068-0.279-0.411,0.188-0.411,0.188l-0.309,1.244c-1.784,5.004-5.19,25.698-20.797,53.818
		c-9.773,17.551,1.788,33.949,18.643,34.244C69.963,126.377,83.342,110.291,74.843,92.545z"/>
	<path fill="#636A98" d="M74.708,92.483C61.637,65.134,58.984,36.879,57.717,31.75l-1.222,4.115c0,0-0.429,0.63-0.529,0.908
		c-0.067-0.279-0.413,0.194-0.413,0.194l-0.311,1.243c-1.778,4.98-5.166,25.579-20.698,53.56
		c-9.731,17.472,1.761,33.799,18.531,34.097C69.835,126.165,83.153,110.154,74.708,92.483z"/>
	<path fill="#636B99" d="M74.573,92.422C61.59,65.202,58.96,36.992,57.702,31.886l-1.232,4.161c0,0-0.433,0.635-0.532,0.91
		c-0.067-0.277-0.415,0.202-0.415,0.202l-0.314,1.243c-1.772,4.959-5.141,25.46-20.599,53.301
		c-9.69,17.394,1.734,33.649,18.421,33.949C69.706,125.952,82.965,110.017,74.573,92.422z"/>
	<path fill="#646C9A" d="M74.438,92.36C61.543,65.27,58.936,37.104,57.687,32.021l-1.242,4.208c0,0-0.436,0.637-0.535,0.912
		c-0.067-0.276-0.417,0.21-0.417,0.21l-0.316,1.242c-1.767,4.937-5.116,25.341-20.5,53.041c-9.648,17.316,1.707,33.5,18.309,33.803
		C69.577,125.74,82.776,109.879,74.438,92.36z"/>
	<path fill="#656D9A" d="M74.303,92.298C61.498,65.336,58.912,37.217,57.672,32.156l-1.253,4.256c0,0-0.439,0.641-0.538,0.914
		c-0.066-0.275-0.419,0.217-0.419,0.217l-0.318,1.242c-1.76,4.914-5.092,25.222-20.399,52.782
		c-9.607,17.237,1.68,33.349,18.198,33.654C69.448,125.527,82.588,109.742,74.303,92.298z"/>
	<path fill="#666D9B" d="M74.168,92.236C61.451,65.404,58.888,37.33,57.657,32.291l-1.264,4.303c0,0-0.442,0.645-0.541,0.916
		c-0.065-0.273-0.42,0.225-0.42,0.225l-0.321,1.242c-1.753,4.891-5.066,25.103-20.3,52.523
		c-9.565,17.159,1.653,33.199,18.087,33.507C69.319,125.314,82.399,109.605,74.168,92.236z"/>
	<path fill="#676E9B" d="M74.033,92.176C61.404,65.472,58.864,37.442,57.642,32.427l-1.274,4.35c0,0-0.445,0.647-0.543,0.918
		c-0.065-0.272-0.422,0.231-0.422,0.231l-0.324,1.242c-1.747,4.868-5.042,24.983-20.2,52.264
		c-9.525,17.082,1.625,33.049,17.975,33.359C69.19,125.102,82.211,109.468,74.033,92.176z"/>
	<path fill="#676F9C" d="M73.898,92.113C61.358,65.539,58.84,37.555,57.627,32.563l-1.285,4.396c0,0-0.448,0.65-0.546,0.92
		c-0.065-0.271-0.424,0.239-0.424,0.239l-0.327,1.241c-1.741,4.847-5.017,24.864-20.101,52.005
		c-9.483,17.003,1.598,32.899,17.864,33.212C69.062,124.889,82.022,109.33,73.898,92.113z"/>
	<path fill="#68709D" d="M73.763,92.053C61.311,65.606,58.815,37.668,57.612,32.697l-1.296,4.443c0,0-0.451,0.654-0.549,0.923
		c-0.064-0.271-0.426,0.246-0.426,0.246l-0.33,1.241c-1.735,4.824-4.992,24.745-20.001,51.746
		c-9.442,16.925,1.571,32.749,17.752,33.064C68.933,124.677,81.834,109.193,73.763,92.053z"/>
	<path fill="#69709D" d="M73.628,91.991C61.265,65.674,58.792,37.78,57.597,32.832l-1.306,4.49c0,0-0.455,0.658-0.552,0.926
		c-0.063-0.27-0.428,0.253-0.428,0.253l-0.332,1.241c-1.729,4.801-4.967,24.626-19.902,51.487
		c-9.401,16.847,1.543,32.598,17.641,32.916C68.804,124.464,81.645,109.057,73.628,91.991z"/>
	<path fill="#6A719E" d="M73.493,91.93C61.218,65.742,58.768,37.893,57.582,32.968l-1.317,4.537c0,0-0.457,0.661-0.554,0.927
		c-0.063-0.268-0.43,0.262-0.43,0.262l-0.334,1.24c-1.722,4.778-4.941,24.507-19.802,51.228c-9.359,16.769,1.517,32.449,17.53,32.77
		C68.675,124.251,81.457,108.92,73.493,91.93z"/>
	<path fill="#6B729E" d="M73.358,91.867C61.172,65.809,58.743,38.006,57.567,33.103l-1.328,4.585c0,0-0.46,0.664-0.557,0.929
		c-0.063-0.267-0.432,0.269-0.432,0.269l-0.337,1.24c-1.716,4.756-4.917,24.388-19.703,50.969
		c-9.318,16.69,1.489,32.298,17.419,32.621C68.546,124.038,81.269,108.782,73.358,91.867z"/>
	<path fill="#6C739F" d="M73.224,91.807c-12.098-25.93-14.505-53.688-15.672-58.568l-1.338,4.631c0,0-0.463,0.668-0.56,0.932
		c-0.063-0.266-0.434,0.275-0.434,0.275l-0.34,1.24c-1.71,4.733-4.893,24.269-19.603,50.71
		c-9.277,16.612,1.462,32.148,17.308,32.474C68.417,123.825,81.08,108.645,73.224,91.807z"/>
	<path fill="#6C73A0" d="M73.088,91.744C61.079,65.943,58.695,38.231,57.537,33.373l-1.349,4.678c0,0-0.467,0.672-0.563,0.935
		c-0.062-0.265-0.436,0.282-0.436,0.282l-0.342,1.24c-1.704,4.711-4.868,24.149-19.504,50.45
		c-9.235,16.534,1.435,31.999,17.196,32.327C68.289,123.613,80.891,108.508,73.088,91.744z"/>
	<path fill="#6D74A0" d="M72.953,91.684c-11.922-25.672-14.282-53.34-15.431-58.175l-1.359,4.726c0,0-0.47,0.674-0.565,0.936
		c-0.062-0.264-0.438,0.29-0.438,0.29l-0.345,1.239c-1.697,4.688-4.843,24.03-19.404,50.191
		c-9.194,16.456,1.408,31.849,17.085,32.18C68.16,123.401,80.702,108.37,72.953,91.684z"/>
	<path fill="#6E75A1" d="M72.818,91.621C60.985,66.079,58.646,38.457,57.507,33.644l-1.37,4.772c0,0-0.472,0.679-0.567,0.938
		c-0.061-0.261-0.439,0.298-0.439,0.298l-0.347,1.24c-1.691,4.665-4.818,23.91-19.305,49.932
		c-9.152,16.378,1.381,31.698,16.974,32.031C68.031,123.188,80.514,108.233,72.818,91.621z"/>
	<path fill="#6F76A1" d="M72.684,91.561C60.939,66.146,58.623,38.569,57.492,33.779l-1.381,4.819c0,0-0.476,0.682-0.57,0.939
		c-0.06-0.26-0.441,0.306-0.441,0.306l-0.35,1.239c-1.685,4.642-4.793,23.791-19.205,49.673
		c-9.111,16.299,1.354,31.548,16.862,31.884C67.902,122.976,80.326,108.097,72.684,91.561z"/>
	<path fill="#7077A2" d="M72.549,91.498c-11.656-25.284-13.95-52.816-15.071-57.584l-1.392,4.866c0,0-0.479,0.686-0.573,0.942
		c-0.06-0.259-0.443,0.313-0.443,0.313l-0.353,1.238c-1.679,4.621-4.768,23.673-19.105,49.414
		c-9.07,16.222,1.326,31.398,16.751,31.736C67.774,122.762,80.138,107.96,72.549,91.498z"/>
	<path fill="#7177A3" d="M72.414,91.437C60.846,66.282,58.574,38.795,57.462,34.05l-1.402,4.913c0,0-0.481,0.688-0.575,0.944
		c-0.06-0.258-0.445,0.319-0.445,0.319l-0.355,1.238c-1.673,4.599-4.744,23.554-19.006,49.155
		c-9.029,16.144,1.298,31.248,16.639,31.589C67.645,122.55,79.949,107.822,72.414,91.437z"/>
	<path fill="#7178A3" d="M72.278,91.375C60.799,66.35,58.551,38.907,57.447,34.185l-1.413,4.96c0,0-0.484,0.693-0.578,0.947
		c-0.059-0.257-0.447,0.326-0.447,0.326l-0.358,1.239c-1.666,4.574-4.719,23.434-18.906,48.896
		c-8.987,16.064,1.271,31.098,16.528,31.441C67.516,122.338,79.76,107.685,72.278,91.375z"/>
	<path fill="#7279A4" d="M72.144,91.314C60.752,66.417,58.526,39.02,57.433,34.32l-1.424,5.007c0,0-0.487,0.695-0.581,0.948
		c-0.058-0.255-0.449,0.335-0.449,0.335l-0.36,1.238c-1.661,4.552-4.694,23.314-18.808,48.636
		c-8.946,15.987,1.245,30.948,16.417,31.294C67.387,122.124,79.571,107.548,72.144,91.314z"/>
	<path fill="#737AA4" d="M72.009,91.252C60.706,66.484,58.502,39.133,57.417,34.455l-1.434,5.055c0,0-0.49,0.699-0.583,0.951
		c-0.058-0.255-0.45,0.342-0.45,0.342l-0.363,1.237c-1.654,4.53-4.669,23.195-18.708,48.377
		c-8.905,15.909,1.217,30.798,16.306,31.146C67.258,121.912,79.383,107.411,72.009,91.252z"/>
	<path fill="#747AA5" d="M71.874,91.191c-11.215-24.64-13.396-51.946-14.472-56.601l-1.445,5.101c0,0-0.493,0.702-0.586,0.953
		c-0.057-0.253-0.452,0.35-0.452,0.35l-0.365,1.237c-1.648,4.507-4.645,23.076-18.608,48.118
		c-8.864,15.83,1.19,30.647,16.194,30.998C67.13,121.698,79.194,107.273,71.874,91.191z"/>
	<path fill="#757BA6" d="M71.739,91.129c-11.126-24.51-13.285-51.771-14.351-56.403l-1.456,5.148c0,0-0.497,0.706-0.589,0.955
		c-0.057-0.251-0.454,0.356-0.454,0.356l-0.368,1.237c-1.642,4.484-4.619,22.957-18.509,47.858
		c-8.822,15.753,1.163,30.497,16.083,30.852C67.001,121.486,79.005,107.137,71.739,91.129z"/>
	<path fill="#767CA6" d="M71.604,91.067C60.565,66.688,58.43,39.471,57.372,34.86l-1.466,5.195c0,0-0.5,0.71-0.592,0.958
		c-0.057-0.251-0.457,0.363-0.457,0.363l-0.371,1.237c-1.635,4.462-4.594,22.838-18.409,47.6
		c-8.78,15.675,1.137,30.348,15.973,30.704C66.872,121.274,78.817,107,71.604,91.067z"/>
	<path fill="#767DA7" d="M71.469,91.006c-10.95-24.251-13.063-51.422-14.111-56.01l-1.477,5.242c0,0-0.502,0.713-0.594,0.959
		c-0.056-0.248-0.458,0.371-0.458,0.371l-0.374,1.237c-1.629,4.439-4.569,22.719-18.309,47.341
		c-8.74,15.596,1.108,30.197,15.86,30.557C66.743,121.062,78.628,106.863,71.469,91.006z"/>
	<path fill="#777EA8" d="M71.334,90.945C60.472,66.822,58.382,39.696,57.342,35.131l-1.488,5.289c0,0-0.506,0.717-0.597,0.963
		c-0.055-0.248-0.46,0.378-0.46,0.378l-0.376,1.236c-1.623,4.417-4.545,22.6-18.21,47.081c-8.698,15.519,1.082,30.048,15.749,30.409
		C66.614,120.849,78.44,106.727,71.334,90.945z"/>
	<path fill="#787FA8" d="M71.199,90.883C60.426,66.89,58.357,39.809,57.327,35.267l-1.498,5.336c0,0-0.508,0.72-0.599,0.964
		c-0.055-0.246-0.462,0.386-0.462,0.386l-0.378,1.236c-1.617,4.395-4.52,22.48-18.11,46.822
		c-8.657,15.44,1.054,29.897,15.638,30.262C66.485,120.637,78.251,106.589,71.199,90.883z"/>
	<path fill="#797FA9" d="M71.064,90.822c-10.686-23.864-12.73-50.901-13.751-55.421l-1.509,5.384c0,0-0.512,0.723-0.603,0.966
		c-0.055-0.245-0.464,0.394-0.464,0.394l-0.381,1.235c-1.61,4.372-4.495,22.361-18.011,46.563
		c-8.616,15.361,1.027,29.746,15.526,30.113C66.356,120.423,78.063,106.452,71.064,90.822z"/>
	<path fill="#7A80A9" d="M70.929,90.76C60.332,67.026,58.31,40.034,57.297,35.537l-1.52,5.43c0,0-0.515,0.727-0.605,0.969
		c-0.054-0.244-0.466,0.4-0.466,0.4l-0.384,1.235c-1.604,4.35-4.47,22.242-17.911,46.305c-8.574,15.283,1,29.597,15.416,29.966
		C66.228,120.211,77.874,106.314,70.929,90.76z"/>
	<path fill="#7B81AA" d="M70.794,90.698C60.285,67.094,58.285,40.146,57.282,35.672l-1.53,5.478c0,0-0.518,0.729-0.608,0.97
		c-0.053-0.242-0.468,0.408-0.468,0.408l-0.386,1.235c-1.599,4.327-4.445,22.122-17.812,46.045
		c-8.533,15.206,0.973,29.447,15.304,29.818C66.099,119.997,77.686,106.178,70.794,90.698z"/>
	<path fill="#7C82AB" d="M70.659,90.637C60.239,67.161,58.261,40.26,57.268,35.808l-1.541,5.523c0,0-0.521,0.733-0.61,0.973
		c-0.053-0.241-0.47,0.415-0.47,0.415l-0.389,1.236c-1.592,4.304-4.42,22.003-17.712,45.785
		c-8.492,15.127,0.946,29.297,15.192,29.671C65.97,119.785,77.497,106.04,70.659,90.637z"/>
	<path fill="#7D83AB" d="M70.524,90.575C60.192,67.228,58.237,40.372,57.252,35.942l-1.551,5.571c0,0-0.524,0.737-0.613,0.975
		c-0.053-0.24-0.471,0.423-0.471,0.423l-0.391,1.234C52.64,48.428,49.83,66.03,36.612,89.673
		c-8.45,15.049,0.919,29.146,15.082,29.523C65.841,119.572,77.308,105.903,70.524,90.575z"/>
	<path fill="#7D84AC" d="M70.389,90.515C60.144,67.297,58.213,40.485,57.237,36.078l-1.562,5.617c0,0-0.527,0.74-0.616,0.978
		c-0.052-0.239-0.474,0.43-0.474,0.43l-0.394,1.234c-1.58,4.259-4.371,21.766-17.514,45.269
		c-8.409,14.971,0.892,28.995,14.971,29.375C65.712,119.359,77.119,105.767,70.389,90.515z"/>
	<path fill="#7E84AD" d="M70.254,90.453c-10.157-23.089-12.065-49.855-13.031-54.24l-1.573,5.665c0,0-0.53,0.744-0.618,0.979
		c-0.052-0.238-0.476,0.437-0.476,0.437l-0.396,1.234c-1.574,4.237-4.347,21.646-17.414,45.009
		c-8.368,14.893,0.864,28.847,14.858,29.229C65.584,119.147,76.93,105.63,70.254,90.453z"/>
	<path fill="#7F85AD" d="M70.12,90.391C60.052,67.432,58.165,40.71,57.208,36.349l-1.583,5.712c0,0-0.533,0.746-0.621,0.981
		c-0.051-0.237-0.477,0.444-0.477,0.444l-0.4,1.233c-1.567,4.214-4.321,21.526-17.314,44.75
		c-8.326,14.814,0.837,28.696,14.748,29.081C65.455,118.935,76.742,105.493,70.12,90.391z"/>
	<path fill="#8086AE" d="M69.984,90.33c-9.98-22.831-11.844-49.508-12.792-53.847l-1.594,5.759c0,0-0.536,0.751-0.624,0.983
		c-0.05-0.235-0.479,0.452-0.479,0.452l-0.402,1.234c-1.561,4.19-4.296,21.407-17.214,44.49
		c-8.285,14.736,0.81,28.547,14.636,28.934C65.327,118.723,76.553,105.355,69.984,90.33z"/>
	<path fill="#8187AF" d="M69.85,90.268c-9.892-22.7-11.733-49.332-12.672-53.648l-1.604,5.806c0,0-0.539,0.754-0.627,0.985
		c-0.05-0.234-0.481,0.459-0.481,0.459l-0.404,1.234c-1.554,4.168-4.271,21.288-17.115,44.23
		c-8.244,14.658,0.782,28.396,14.524,28.786C65.198,118.51,76.365,105.219,69.85,90.268z"/>
	<path fill="#8288AF" d="M69.714,90.206c-9.804-22.571-11.622-49.157-12.552-53.452l-1.615,5.853c0,0-0.542,0.758-0.629,0.988
		c-0.049-0.233-0.483,0.467-0.483,0.467l-0.407,1.233c-1.549,4.146-4.247,21.168-17.016,43.972
		c-8.202,14.58,0.755,28.246,14.414,28.639C65.069,118.297,76.176,105.082,69.714,90.206z"/>
	<path fill="#8389B0" d="M69.579,90.145c-9.716-22.441-11.511-48.983-12.432-53.256l-1.626,5.9c0,0-0.545,0.761-0.631,0.99
		c-0.05-0.231-0.485,0.474-0.485,0.474l-0.41,1.232c-1.542,4.124-4.222,21.05-16.917,43.714
		c-8.161,14.502,0.728,28.096,14.303,28.49C64.94,118.084,75.987,104.945,69.579,90.145z"/>
	<path fill="#848AB1" d="M69.445,90.084c-9.628-22.313-11.401-48.811-12.312-53.06l-1.637,5.947c0,0-0.548,0.764-0.635,0.991
		c-0.048-0.229-0.486,0.481-0.486,0.481l-0.412,1.232c-1.536,4.102-4.197,20.932-16.816,43.454
		c-8.12,14.424,0.701,27.946,14.191,28.344C64.811,117.871,75.798,104.808,69.445,90.084z"/>
	<path fill="#858AB1" d="M69.31,90.021C59.77,67.838,58.021,41.387,57.118,37.16l-1.647,5.993c0,0-0.551,0.768-0.637,0.994
		c-0.048-0.229-0.489,0.488-0.489,0.488l-0.415,1.233c-1.53,4.078-4.172,20.811-16.717,43.194
		c-8.079,14.346,0.674,27.796,14.08,28.195C64.682,117.658,75.609,104.671,69.31,90.021z"/>
	<path fill="#868BB2" d="M69.175,89.961c-9.453-22.055-11.179-48.462-12.072-52.666l-1.658,6.041c0,0-0.554,0.771-0.64,0.996
		c-0.047-0.228-0.491,0.496-0.491,0.496l-0.417,1.232c-1.524,4.056-4.147,20.691-16.617,42.936
		c-8.038,14.268,0.646,27.646,13.968,28.048C64.554,117.445,75.421,104.534,69.175,89.961z"/>
	<path fill="#878CB3" d="M69.04,89.898C59.676,67.974,57.972,41.611,57.087,37.43l-1.668,6.088c0,0-0.557,0.774-0.643,0.999
		c-0.047-0.227-0.492,0.503-0.492,0.503l-0.42,1.232c-1.518,4.033-4.122,20.572-16.518,42.676
		c-7.996,14.189,0.62,27.497,13.857,27.901C64.424,117.233,75.232,104.397,69.04,89.898z"/>
	<path fill="#888DB3" d="M68.904,89.837c-9.276-21.795-10.956-48.112-11.832-52.271L55.394,43.7c0,0-0.561,0.778-0.645,1.001
		c-0.047-0.226-0.495,0.51-0.495,0.51l-0.422,1.232c-1.512,4.011-4.098,20.454-16.419,42.417
		c-7.954,14.111,0.593,27.345,13.746,27.753C64.295,117.021,75.043,104.261,68.904,89.837z"/>
	<path fill="#898EB4" d="M68.77,89.775c-9.188-21.666-10.846-47.938-11.712-52.074l-1.689,6.181c0,0-0.563,0.782-0.648,1.003
		c-0.046-0.224-0.497,0.519-0.497,0.519l-0.425,1.231c-1.505,3.988-4.073,20.334-16.319,42.158
		c-7.914,14.033,0.565,27.195,13.634,27.605C64.167,116.808,74.854,104.123,68.77,89.775z"/>
	<path fill="#898FB5" d="M68.635,89.715c-9.101-21.537-10.735-47.766-11.592-51.879l-1.7,6.229c0,0-0.566,0.785-0.65,1.005
		c-0.046-0.223-0.499,0.525-0.499,0.525l-0.428,1.231c-1.498,3.966-4.048,20.215-16.219,41.898
		c-7.872,13.955,0.538,27.046,13.523,27.459C64.038,116.597,74.666,103.986,68.635,89.715z"/>
	<path fill="#8A90B5" d="M68.5,89.652c-9.012-21.407-10.624-47.59-11.472-51.682l-1.711,6.276c0,0-0.569,0.788-0.654,1.007
		c-0.045-0.221-0.5,0.533-0.5,0.533l-0.43,1.23c-1.493,3.943-4.023,20.096-16.12,41.64c-7.831,13.877,0.511,26.896,13.412,27.312
		C63.91,116.384,74.477,103.849,68.5,89.652z"/>
	<path fill="#8B91B6" d="M68.365,89.592c-8.925-21.278-10.513-47.417-11.352-51.486l-1.722,6.324c0,0-0.572,0.791-0.656,1.009
		c-0.044-0.221-0.502,0.54-0.502,0.54l-0.433,1.23c-1.486,3.92-3.998,19.977-16.021,41.381
		c-7.789,13.799,0.484,26.745,13.301,27.163C63.781,116.171,74.288,103.713,68.365,89.592z"/>
	<path fill="#8C92B7" d="M68.229,89.529c-8.836-21.147-10.402-47.241-11.232-51.288l-1.732,6.37c0,0-0.575,0.795-0.659,1.011
		c-0.044-0.218-0.504,0.548-0.504,0.548l-0.436,1.23c-1.48,3.898-3.973,19.857-15.92,41.122
		c-7.749,13.72,0.457,26.595,13.189,27.016C63.652,115.958,74.099,103.576,68.229,89.529z"/>
	<path fill="#8D93B7" d="M68.095,89.468C59.347,68.449,57.804,42.4,56.983,38.377l-1.743,6.416c0,0-0.579,0.799-0.661,1.014
		c-0.044-0.217-0.506,0.555-0.506,0.555l-0.438,1.23c-1.474,3.875-3.948,19.738-15.821,40.863
		c-7.707,13.643,0.43,26.443,13.078,26.867C63.523,115.745,73.911,103.438,68.095,89.468z"/>
	<path fill="#8E93B8" d="M67.96,89.406c-8.661-20.889-10.181-46.893-10.992-50.895l-1.753,6.464c0,0-0.582,0.802-0.664,1.016
		c-0.043-0.216-0.508,0.562-0.508,0.562l-0.44,1.23c-1.468,3.853-3.923,19.619-15.722,40.604
		c-7.666,13.564,0.402,26.295,12.967,26.721C63.395,115.532,73.721,103.303,67.96,89.406z"/>
	<path fill="#8F94B9" d="M67.825,89.345c-8.574-20.76-10.07-46.719-10.873-50.698l-1.764,6.512c0,0-0.584,0.805-0.667,1.018
		c-0.042-0.215-0.509,0.569-0.509,0.569l-0.443,1.229c-1.462,3.83-3.899,19.5-15.623,40.345
		c-7.624,13.486,0.375,26.144,12.856,26.572C63.266,115.319,73.533,103.165,67.825,89.345z"/>
	<path fill="#9095B9" d="M67.69,89.283c-8.485-20.63-9.958-46.545-10.752-50.501l-1.774,6.558c0,0-0.588,0.809-0.669,1.021
		c-0.042-0.214-0.512,0.577-0.512,0.577l-0.446,1.229c-1.456,3.808-3.875,19.381-15.523,40.086
		c-7.583,13.407,0.348,25.994,12.744,26.425C63.137,115.106,73.344,103.029,67.69,89.283z"/>
	<path fill="#9196BA" d="M67.555,89.223c-8.398-20.501-9.848-46.371-10.632-50.305l-1.785,6.604c0,0-0.591,0.812-0.672,1.022
		c-0.042-0.213-0.514,0.584-0.514,0.584l-0.448,1.229c-1.449,3.785-3.849,19.262-15.423,39.826
		c-7.542,13.33,0.32,25.845,12.633,26.278C63.008,114.895,73.154,102.892,67.555,89.223z"/>
	<path fill="#9297BB" d="M67.42,89.16c-8.311-20.372-9.738-46.196-10.513-50.107l-1.796,6.652c0,0-0.593,0.815-0.675,1.023
		c-0.042-0.211-0.515,0.592-0.515,0.592l-0.451,1.229c-1.442,3.763-3.824,19.143-15.323,39.567
		c-7.5,13.252,0.292,25.693,12.521,26.13C62.879,114.682,72.966,102.754,67.42,89.16z"/>
	<path fill="#9398BB" d="M67.285,89.099c-8.222-20.241-9.626-46.022-10.393-49.911l-1.807,6.699c0,0-0.597,0.818-0.677,1.026
		c-0.041-0.21-0.518,0.599-0.518,0.599l-0.453,1.229c-1.438,3.74-3.8,19.023-15.225,39.309c-7.458,13.174,0.266,25.544,12.41,25.982
		C62.75,114.469,72.776,102.617,67.285,89.099z"/>
	<path fill="#9499BC" d="M67.15,89.037c-8.135-20.112-9.516-45.848-10.272-49.714l-1.817,6.745c0,0-0.6,0.823-0.68,1.029
		c-0.041-0.209-0.52,0.605-0.52,0.605l-0.456,1.229c-1.431,3.718-3.774,18.904-15.125,39.049
		c-7.417,13.096,0.239,25.395,12.299,25.836C62.621,114.257,72.588,102.48,67.15,89.037z"/>
	<path fill="#959ABD" d="M67.015,88.976c-8.047-19.983-9.405-45.674-10.152-49.517l-1.828,6.792c0,0-0.603,0.826-0.683,1.03
		c-0.04-0.207-0.521,0.614-0.521,0.614l-0.459,1.228c-1.424,3.695-3.749,18.785-15.024,38.79
		c-7.376,13.018,0.212,25.243,12.188,25.688C62.492,114.044,72.399,102.345,67.015,88.976z"/>
	<path fill="#969BBD" d="M66.88,88.914c-7.959-19.853-9.293-45.5-10.032-49.32l-1.838,6.84c0,0-0.606,0.829-0.686,1.033
		c-0.04-0.207-0.523,0.621-0.523,0.621l-0.461,1.227c-1.418,3.673-3.725,18.666-14.926,38.531
		c-7.335,12.938,0.185,25.093,12.076,25.54C62.364,113.832,72.209,102.208,66.88,88.914z"/>
	<path fill="#979CBE" d="M66.746,88.854c-7.872-19.724-9.183-45.326-9.913-49.125l-1.85,6.887c0,0-0.609,0.833-0.688,1.035
		c-0.039-0.205-0.525,0.629-0.525,0.629l-0.464,1.227c-1.412,3.65-3.7,18.547-14.826,38.271
		c-7.293,12.861,0.158,24.944,11.965,25.394C62.235,113.619,72.021,102.07,66.746,88.854z"/>
	<path fill="#989DBF" d="M66.61,88.791c-7.785-19.595-9.072-45.151-9.792-48.927l-1.86,6.934c0,0-0.611,0.836-0.69,1.037
		c-0.039-0.204-0.527,0.636-0.527,0.636l-0.466,1.227c-1.406,3.627-3.675,18.428-14.727,38.013
		c-7.251,12.783,0.13,24.794,11.854,25.245C62.106,113.405,71.832,101.934,66.61,88.791z"/>
	<path fill="#999EBF" d="M66.476,88.729C58.779,69.266,57.514,43.753,56.803,40l-1.87,6.98c0,0-0.615,0.839-0.694,1.039
		c-0.038-0.203-0.528,0.643-0.528,0.643l-0.469,1.227c-1.399,3.605-3.65,18.309-14.627,37.754
		c-7.211,12.705,0.104,24.644,11.743,25.098C61.978,113.193,71.643,101.797,66.476,88.729z"/>
	<path fill="#9A9FC0" d="M66.341,88.668c-7.609-19.335-8.851-44.803-9.553-48.533l-1.881,7.027c0,0-0.618,0.844-0.696,1.041
		c-0.038-0.2-0.531,0.651-0.531,0.651l-0.471,1.226c-1.394,3.582-3.625,18.189-14.528,37.494
		c-7.169,12.627,0.076,24.493,11.631,24.95C61.849,112.98,71.454,101.66,66.341,88.668z"/>
	<path fill="#9BA0C1" d="M66.205,88.606c-7.522-19.204-8.739-44.628-9.432-48.337l-1.892,7.074c0,0-0.621,0.848-0.698,1.045
		c-0.037-0.2-0.533,0.657-0.533,0.657l-0.474,1.226c-1.387,3.56-3.601,18.07-14.428,37.235c-7.128,12.549,0.048,24.344,11.52,24.803
		C61.72,112.768,71.265,101.523,66.205,88.606z"/>
	<path fill="#9CA1C1" d="M66.071,88.545c-7.435-19.075-8.629-44.454-9.313-48.141l-1.902,7.122c0,0-0.624,0.851-0.701,1.046
		c-0.037-0.198-0.534,0.665-0.534,0.665l-0.477,1.226C51.762,54,49.567,68.414,38.814,87.439
		c-7.087,12.47,0.022,24.192,11.409,24.654C61.591,112.555,71.076,101.387,66.071,88.545z"/>
	<path fill="#9DA2C2" d="M65.936,88.484c-7.347-18.945-8.518-44.281-9.192-47.944l-1.914,7.169c0,0-0.627,0.854-0.704,1.048
		c-0.036-0.197-0.536,0.673-0.536,0.673l-0.479,1.225c-1.375,3.516-3.551,17.832-14.229,36.718
		c-7.045,12.392-0.005,24.043,11.297,24.507C61.462,112.342,70.886,101.25,65.936,88.484z"/>
	<path fill="#9EA3C3" d="M65.801,88.422c-7.26-18.815-8.407-44.105-9.073-47.746l-1.924,7.215c0,0-0.63,0.857-0.706,1.051
		c-0.036-0.196-0.539,0.68-0.539,0.68l-0.482,1.225c-1.369,3.492-3.525,17.713-14.129,36.458
		c-7.004,12.314-0.033,23.893,11.186,24.36C61.333,112.131,70.698,101.113,65.801,88.422z"/>
	<path fill="#9FA4C3" d="M65.666,88.36c-7.173-18.687-8.296-43.932-8.953-47.55l-1.935,7.263c0,0-0.633,0.86-0.709,1.053
		c-0.035-0.195-0.54,0.687-0.54,0.687l-0.485,1.226c-1.362,3.469-3.5,17.593-14.029,36.198c-6.963,12.236-0.06,23.743,11.075,24.213
		C61.205,111.918,70.509,100.978,65.666,88.36z"/>
	<path fill="#A0A5C4" d="M65.531,88.299c-7.085-18.557-8.186-43.758-8.833-47.354l-1.945,7.311c0,0-0.636,0.863-0.712,1.055
		c-0.034-0.193-0.542,0.694-0.542,0.694l-0.487,1.224c-1.356,3.447-3.477,17.475-13.93,35.94
		c-6.921,12.157-0.087,23.592,10.963,24.064C61.076,111.705,70.319,100.84,65.531,88.299z"/>
	<path fill="#A2A6C5" d="M65.396,88.237c-6.998-18.427-8.074-43.583-8.712-47.156l-1.957,7.356c0,0-0.639,0.867-0.714,1.057
		c-0.034-0.192-0.544,0.702-0.544,0.702l-0.49,1.224c-1.35,3.425-3.451,17.355-13.831,35.682
		c-6.88,12.079-0.114,23.442,10.852,23.917C60.947,111.492,70.13,100.703,65.396,88.237z"/>
	<path fill="#A3A7C6" d="M65.261,88.176c-6.91-18.297-7.963-43.409-8.593-46.959l-1.967,7.402c0,0-0.642,0.871-0.717,1.06
		c-0.034-0.19-0.546,0.709-0.546,0.709l-0.492,1.224c-1.344,3.402-3.427,17.236-13.731,35.422
		c-6.839,12.001-0.142,23.293,10.741,23.771C60.818,111.28,69.94,100.566,65.261,88.176z"/>
	<path fill="#A4A8C6" d="M65.126,88.114c-6.824-18.167-7.853-43.235-8.473-46.763l-1.978,7.45c0,0-0.645,0.874-0.72,1.062
		c-0.033-0.19-0.548,0.716-0.548,0.716l-0.495,1.224c-1.337,3.38-3.402,17.117-13.632,35.163
		c-6.797,11.923-0.168,23.143,10.63,23.622C60.689,111.066,69.752,100.43,65.126,88.114z"/>
	<path fill="#A5A9C7" d="M64.991,88.053c-6.736-18.037-7.742-43.061-8.353-46.566l-1.988,7.498c0,0-0.648,0.877-0.723,1.063
		c-0.032-0.188-0.55,0.724-0.55,0.724l-0.497,1.224c-1.332,3.356-3.378,16.997-13.532,34.903
		c-6.756,11.845-0.196,22.992,10.518,23.475C60.561,110.854,69.563,100.293,64.991,88.053z"/>
	<path fill="#A6AAC8" d="M64.856,87.991c-6.649-17.908-7.631-42.886-8.233-46.369l-1.999,7.544c0,0-0.651,0.881-0.725,1.066
		c-0.032-0.188-0.552,0.73-0.552,0.73l-0.5,1.224c-1.325,3.334-3.352,16.878-13.433,34.644
		c-6.715,11.768-0.223,22.842,10.407,23.327C60.432,110.642,69.373,100.156,64.856,87.991z"/>
	<path fill="#A7ABC8" d="M64.721,87.93c-6.562-17.777-7.52-42.712-8.113-46.173l-2.01,7.592c0,0-0.653,0.885-0.728,1.067
		c-0.032-0.186-0.554,0.738-0.554,0.738l-0.502,1.224c-1.319,3.312-3.327,16.759-13.333,34.385
		c-6.673,11.688-0.25,22.692,10.296,23.18C60.303,110.429,69.184,100.021,64.721,87.93z"/>
	<path fill="#A8ACC9" d="M64.586,87.868c-6.475-17.648-7.409-42.538-7.993-45.976l-2.021,7.639c0,0-0.657,0.888-0.73,1.069
		c-0.031-0.185-0.556,0.746-0.556,0.746l-0.505,1.223c-1.313,3.288-3.303,16.64-13.234,34.126
		c-6.632,11.61-0.277,22.541,10.185,23.031C60.174,110.216,68.995,99.884,64.586,87.868z"/>
	<path fill="#A9ADCA" d="M64.451,87.807c-6.388-17.519-7.298-42.364-7.873-45.779l-2.03,7.686c0,0-0.66,0.892-0.733,1.072
		c-0.03-0.184-0.558,0.753-0.558,0.753L52.75,52.76c-1.307,3.268-3.278,16.521-13.134,33.867
		c-6.591,11.532-0.305,22.392,10.073,22.885C60.045,110.004,68.805,99.747,64.451,87.807z"/>
	<path fill="#AAAECB" d="M64.316,87.745c-6.301-17.389-7.188-42.189-7.753-45.582l-2.042,7.732c0,0-0.663,0.895-0.736,1.074
		c-0.03-0.183-0.559,0.76-0.559,0.76l-0.51,1.223c-1.301,3.243-3.253,16.401-13.035,33.607c-6.55,11.454-0.332,22.242,9.961,22.737
		C59.916,109.791,68.616,99.61,64.316,87.745z"/>
	<path fill="#ABAFCB" d="M64.182,87.684c-6.214-17.258-7.077-42.016-7.633-45.386l-2.052,7.779c0,0-0.667,0.898-0.739,1.076
		c-0.03-0.181-0.561,0.769-0.561,0.769l-0.513,1.222c-1.294,3.221-3.228,16.282-12.935,33.349
		c-6.508,11.376-0.359,22.092,9.851,22.59C59.788,109.579,68.427,99.474,64.182,87.684z"/>
	<path fill="#ACB0CC" d="M64.046,87.623c-6.127-17.13-6.966-41.842-7.513-45.189l-2.063,7.826c0,0-0.669,0.901-0.741,1.078
		c-0.029-0.18-0.563,0.775-0.563,0.775l-0.516,1.222c-1.288,3.198-3.203,16.163-12.835,33.089
		c-6.467,11.299-0.386,21.942,9.739,22.442C59.659,109.365,68.236,99.338,64.046,87.623z"/>
	<path fill="#ADB1CD" d="M63.912,87.561c-6.041-16.999-6.855-41.667-7.393-44.992l-2.073,7.873c0,0-0.673,0.905-0.744,1.081
		c-0.029-0.179-0.565,0.782-0.565,0.782l-0.518,1.222c-1.282,3.176-3.178,16.044-12.736,32.83
		c-6.425,11.22-0.413,21.792,9.628,22.295C59.531,109.153,68.048,99.2,63.912,87.561z"/>
	<path fill="#AFB2CD" d="M63.776,87.499c-5.953-16.869-6.744-41.492-7.272-44.795l-2.084,7.92c0,0-0.675,0.908-0.747,1.083
		c-0.028-0.178-0.566,0.789-0.566,0.789l-0.521,1.222c-1.275,3.153-3.153,15.925-12.636,32.571
		c-6.384,11.142-0.44,21.641,9.517,22.146C59.402,108.94,67.858,99.064,63.776,87.499z"/>
	<path fill="#B0B3CE" d="M63.642,87.438c-5.866-16.738-6.634-41.318-7.153-44.599l-2.094,7.968c0,0-0.678,0.912-0.75,1.085
		c-0.027-0.177-0.568,0.797-0.568,0.797l-0.523,1.221c-1.27,3.131-3.129,15.806-12.537,32.313
		c-6.343,11.063-0.468,21.491,9.405,21.999C59.273,108.728,67.668,98.928,63.642,87.438z"/>
	<path fill="#B1B4CF" d="M63.507,87.376c-5.779-16.609-6.522-41.145-7.033-44.402l-2.105,8.015c0,0-0.681,0.916-0.752,1.087
		c-0.027-0.175-0.571,0.805-0.571,0.805l-0.526,1.221c-1.263,3.108-3.104,15.687-12.438,32.053
		c-6.302,10.985-0.494,21.342,9.294,21.853C59.144,108.516,67.479,98.791,63.507,87.376z"/>
	<path fill="#B2B5D0" d="M63.372,87.314c-5.693-16.479-6.412-40.971-6.913-44.205l-2.116,8.062c0,0-0.685,0.919-0.755,1.089
		c-0.027-0.174-0.572,0.813-0.572,0.813l-0.529,1.22c-1.257,3.086-3.079,15.567-12.338,31.794
		c-6.26,10.907-0.522,21.191,9.183,21.704C59.015,108.302,67.289,98.654,63.372,87.314z"/>
	<path fill="#B3B6D0" d="M63.237,87.253c-5.606-16.349-6.301-40.796-6.793-44.008l-2.126,8.107c0,0-0.688,0.923-0.758,1.092
		c-0.026-0.173-0.574,0.819-0.574,0.819l-0.531,1.22c-1.25,3.063-3.054,15.448-12.238,31.535
		c-6.219,10.829-0.549,21.041,9.071,21.557C58.886,108.09,67.1,98.518,63.237,87.253z"/>
	<path fill="#B4B7D1" d="M63.102,87.191c-5.52-16.219-6.189-40.621-6.673-43.812l-2.137,8.155c0,0-0.691,0.926-0.76,1.094
		c-0.025-0.171-0.576,0.826-0.576,0.826l-0.534,1.22c-1.245,3.041-3.029,15.329-12.139,31.276
		c-6.178,10.75-0.576,20.89,8.959,21.408C58.757,107.877,66.91,98.382,63.102,87.191z"/>
	<path fill="#B5B8D2" d="M62.967,87.13c-5.434-16.088-6.079-40.447-6.553-43.615l-2.148,8.202c0,0-0.693,0.93-0.762,1.097
		c-0.025-0.17-0.579,0.833-0.579,0.833l-0.536,1.22c-1.238,3.019-3.004,15.21-12.04,31.017c-6.136,10.673-0.603,20.74,8.849,21.262
		C58.628,107.665,66.72,98.244,62.967,87.13z"/>
	<path fill="#B6B9D2" d="M62.832,87.068c-5.347-15.959-5.969-40.273-6.434-43.418l-2.158,8.249c0,0-0.696,0.933-0.766,1.098
		c-0.025-0.168-0.58,0.842-0.58,0.842l-0.539,1.219c-1.232,2.995-2.98,15.091-11.94,30.758c-6.095,10.594-0.631,20.591,8.737,21.114
		C58.5,107.452,66.531,98.109,62.832,87.068z"/>
	<path fill="#B7BAD3" d="M62.697,87.007c-5.261-15.829-5.858-40.099-6.313-43.222l-2.169,8.297c0,0-0.7,0.936-0.769,1.1
		c-0.024-0.167-0.582,0.849-0.582,0.849l-0.541,1.219c-1.226,2.974-2.955,14.972-11.841,30.499
		c-6.054,10.516-0.657,20.44,8.626,20.967C58.371,107.24,66.341,97.972,62.697,87.007z"/>
	<path fill="#B9BBD4" d="M62.562,86.945c-5.174-15.698-5.747-39.925-6.193-43.024l-2.18,8.343c0,0-0.703,0.939-0.771,1.103
		c-0.023-0.166-0.584,0.856-0.584,0.856l-0.544,1.219c-1.219,2.95-2.93,14.852-11.741,30.238
		c-6.013,10.438-0.685,20.291,8.515,20.819C58.242,107.026,66.151,97.836,62.562,86.945z"/>
	<path fill="#BABDD5" d="M62.427,86.884c-5.087-15.568-5.636-39.751-6.073-42.828l-2.19,8.391c0,0-0.706,0.942-0.773,1.104
		c-0.023-0.165-0.586,0.863-0.586,0.863l-0.547,1.218c-1.213,2.928-2.905,14.733-11.641,29.98
		c-5.971,10.36-0.712,20.141,8.403,20.672C58.114,106.814,65.961,97.699,62.427,86.884z"/>
	<path fill="#BBBED5" d="M62.292,86.822c-5.001-15.438-5.525-39.576-5.953-42.631l-2.201,8.438c0,0-0.709,0.945-0.776,1.105
		c-0.023-0.163-0.587,0.871-0.587,0.871l-0.549,1.218c-1.207,2.905-2.88,14.614-11.542,29.722
		c-5.93,10.281-0.739,19.99,8.292,20.523C57.985,106.601,65.771,97.563,62.292,86.822z"/>
	<path fill="#BCBFD6" d="M62.157,86.761c-4.916-15.308-5.414-39.402-5.833-42.435l-2.211,8.484c0,0-0.712,0.95-0.779,1.109
		c-0.022-0.163-0.59,0.877-0.59,0.877l-0.552,1.218c-1.201,2.884-2.854,14.495-11.442,29.462
		c-5.889,10.204-0.766,19.841,8.181,20.377C57.856,106.389,65.582,97.426,62.157,86.761z"/>
	<path fill="#BDC0D7" d="M62.022,86.699c-4.829-15.178-5.304-39.228-5.714-42.237l-2.222,8.531c0,0-0.715,0.952-0.781,1.11
		c-0.022-0.16-0.591,0.886-0.591,0.886l-0.555,1.217c-1.195,2.86-2.831,14.376-11.343,29.203
		c-5.848,10.126-0.793,19.69,8.069,20.229C57.728,106.177,65.392,97.29,62.022,86.699z"/>
	<path fill="#BEC1D8" d="M61.887,86.638c-4.743-15.048-5.192-39.054-5.593-42.041l-2.233,8.578c0,0-0.718,0.957-0.784,1.113
		c-0.021-0.16-0.594,0.893-0.594,0.893l-0.557,1.218c-1.188,2.837-2.806,14.256-11.243,28.943
		c-5.806,10.047-0.82,19.54,7.958,20.081C57.598,105.963,65.202,97.154,61.887,86.638z"/>
	<path fill="#C0C2D8" d="M61.752,86.576c-4.657-14.917-5.081-38.88-5.473-41.844l-2.244,8.625c0,0-0.721,0.96-0.787,1.115
		c-0.021-0.158-0.595,0.899-0.595,0.899l-0.56,1.218c-1.182,2.814-2.781,14.137-11.144,28.684
		c-5.764,9.97-0.847,19.391,7.847,19.935C57.469,105.751,65.011,97.017,61.752,86.576z"/>
	<path fill="#C1C3D9" d="M61.617,86.515c-4.571-14.786-4.97-38.705-5.353-41.647L54.01,53.54c0,0-0.724,0.963-0.79,1.116
		c-0.021-0.157-0.598,0.908-0.598,0.908l-0.562,1.217c-1.176,2.792-2.756,14.018-11.044,28.425
		c-5.723,9.892-0.875,19.239,7.736,19.786C57.341,105.538,64.822,96.881,61.617,86.515z"/>
	<path fill="#C2C4DA" d="M61.482,86.453c-4.485-14.656-4.86-38.531-5.233-41.45l-2.265,8.719c0,0-0.727,0.967-0.792,1.12
		c-0.02-0.156-0.599,0.914-0.599,0.914l-0.565,1.216c-1.17,2.771-2.731,13.899-10.945,28.167c-5.682,9.813-0.902,19.09,7.625,19.639
		C57.212,105.325,64.632,96.745,61.482,86.453z"/>
	<path fill="#C3C6DB" d="M61.348,86.392c-4.399-14.526-4.749-38.357-5.114-41.254l-2.275,8.767c0,0-0.73,0.97-0.795,1.121
		c-0.019-0.154-0.601,0.922-0.601,0.922l-0.567,1.216c-1.164,2.748-2.706,13.78-10.845,27.908
		c-5.641,9.734-0.929,18.939,7.513,19.491C57.083,105.113,64.442,96.608,61.348,86.392z"/>
	<path fill="#C4C7DB" d="M61.212,86.33c-4.313-14.396-4.638-38.183-4.993-41.057l-2.287,8.813c0,0-0.733,0.974-0.798,1.124
		c-0.019-0.153-0.603,0.93-0.603,0.93l-0.57,1.216c-1.158,2.725-2.682,13.66-10.746,27.647c-5.6,9.657-0.957,18.79,7.401,19.345
		C56.955,104.9,64.251,96.473,61.212,86.33z"/>
	<path fill="#C6C8DC" d="M61.077,86.269c-4.228-14.266-4.527-38.009-4.873-40.86l-2.297,8.86c0,0-0.736,0.978-0.8,1.126
		c-0.019-0.152-0.605,0.937-0.605,0.937l-0.573,1.216c-1.151,2.702-2.656,13.541-10.646,27.389
		c-5.558,9.578-0.983,18.64,7.291,19.196C56.826,104.688,64.061,96.336,61.077,86.269z"/>
	<path fill="#C7C9DD" d="M60.942,86.207c-4.143-14.136-4.416-37.834-4.753-40.663l-2.307,8.906c0,0-0.739,0.98-0.803,1.128
		c-0.018-0.15-0.607,0.944-0.607,0.944l-0.575,1.216c-1.146,2.68-2.632,13.422-10.546,27.13c-5.517,9.5-1.011,18.488,7.179,19.048
		C56.697,104.475,63.871,96.199,60.942,86.207z"/>
	<path fill="#C8CADE" d="M60.808,86.146c-4.057-14.005-4.305-37.66-4.633-40.467l-2.318,8.954c0,0-0.742,0.984-0.806,1.131
		c-0.018-0.15-0.608,0.951-0.608,0.951l-0.578,1.215c-1.139,2.656-2.607,13.303-10.447,26.871c-5.476,9.422-1.038,18.338,7.067,18.9
		C56.568,104.262,63.68,96.063,60.808,86.146z"/>
	<path fill="#C9CBDE" d="M60.673,86.084c-3.972-13.875-4.195-37.486-4.514-40.27l-2.329,9.001c0,0-0.745,0.986-0.808,1.132
		c-0.017-0.148-0.61,0.959-0.61,0.959l-0.581,1.215c-1.133,2.634-2.582,13.183-10.348,26.611
		c-5.434,9.344-1.065,18.189,6.957,18.754C56.439,104.049,63.49,95.927,60.673,86.084z"/>
	<path fill="#CACCDF" d="M60.538,86.022c-3.885-13.744-4.083-37.312-4.394-40.073l-2.339,9.048c0,0-0.748,0.991-0.811,1.135
		c-0.017-0.147-0.613,0.966-0.613,0.966l-0.583,1.215c-1.126,2.611-2.557,13.064-10.249,26.353
		c-5.393,9.266-1.092,18.038,6.846,18.605C56.311,103.836,63.299,95.791,60.538,86.022z"/>
	<path fill="#CCCEE0" d="M60.402,85.961c-3.8-13.613-3.972-37.138-4.273-39.876l-2.35,9.095c0,0-0.751,0.994-0.814,1.137
		c-0.016-0.146-0.615,0.974-0.615,0.974l-0.585,1.214c-1.12,2.589-2.532,12.945-10.149,26.094
		c-5.351,9.188-1.12,17.888,6.734,18.458C56.182,103.624,63.108,95.654,60.402,85.961z"/>
	<path fill="#CDCFE1" d="M60.268,85.899c-3.715-13.483-3.862-36.964-4.154-39.68l-2.36,9.142c0,0-0.754,0.998-0.816,1.139
		c-0.016-0.145-0.617,0.981-0.617,0.981l-0.588,1.214c-1.114,2.566-2.507,12.825-10.049,25.835
		c-5.31,9.108-1.146,17.738,6.623,18.311C56.053,103.411,62.918,95.519,60.268,85.899z"/>
	<path fill="#CED0E1" d="M60.133,85.838c-3.63-13.354-3.751-36.789-4.034-39.483l-2.371,9.189c0,0-0.757,1.001-0.819,1.141
		c-0.015-0.144-0.618,0.988-0.618,0.988L51.7,58.887c-1.108,2.544-2.482,12.706-9.949,25.575
		c-5.269,9.031-1.174,17.588,6.511,18.163C55.924,103.198,62.728,95.383,60.133,85.838z"/>
	<path fill="#CFD1E2" d="M59.998,85.776c-3.545-13.223-3.64-36.614-3.914-39.286l-2.382,9.235c0,0-0.76,1.005-0.822,1.144
		c-0.015-0.143-0.62,0.995-0.62,0.995l-0.593,1.214c-1.102,2.521-2.458,12.588-9.85,25.316c-5.228,8.953-1.201,17.438,6.399,18.016
		C55.795,102.986,62.537,95.246,59.998,85.776z"/>
	<path fill="#D1D2E3" d="M59.863,85.715c-3.46-13.092-3.529-36.44-3.794-39.089l-2.392,9.282c0,0-0.764,1.008-0.824,1.146
		c-0.014-0.141-0.623,1.003-0.623,1.003l-0.596,1.213c-1.095,2.499-2.433,12.469-9.75,25.058
		c-5.186,8.875-1.228,17.288,6.289,17.868C55.667,102.773,62.346,95.11,59.863,85.715z"/>
	<path fill="#D2D4E4" d="M59.728,85.653c-3.375-12.961-3.418-36.267-3.673-38.893l-2.403,9.33c0,0-0.766,1.011-0.827,1.147
		c-0.014-0.14-0.624,1.01-0.624,1.01l-0.599,1.213c-1.09,2.477-2.408,12.349-9.651,24.798c-5.145,8.797-1.255,17.139,6.178,17.722
		C55.538,102.562,62.155,94.974,59.728,85.653z"/>
	<path fill="#D3D5E5" d="M59.593,85.592c-3.29-12.831-3.307-36.093-3.554-38.696l-2.414,9.377c0,0-0.77,1.015-0.83,1.15
		c-0.013-0.139-0.625,1.017-0.625,1.017l-0.602,1.213c-1.083,2.454-2.383,12.229-9.551,24.539
		c-5.103,8.719-1.282,16.987,6.066,17.573C55.409,102.349,61.964,94.838,59.593,85.592z"/>
	<path fill="#D5D6E5" d="M59.458,85.53c-3.206-12.701-3.197-35.918-3.434-38.499L53.6,56.455c0,0-0.772,1.018-0.833,1.151
		c-0.012-0.137-0.628,1.025-0.628,1.025l-0.604,1.212c-1.077,2.432-2.358,12.111-9.452,24.28c-5.063,8.64-1.309,16.837,5.955,17.425
		C55.28,102.135,61.773,94.701,59.458,85.53z"/>
	<path fill="#D6D7E6" d="M59.323,85.469c-3.121-12.57-3.086-35.744-3.314-38.303l-2.436,9.471c0,0-0.775,1.022-0.834,1.154
		c-0.012-0.136-0.63,1.032-0.63,1.032l-0.606,1.212c-1.071,2.409-2.333,11.991-9.353,24.021c-5.021,8.563-1.336,16.688,5.844,17.278
		C55.152,101.923,61.582,94.565,59.323,85.469z"/>
	<path fill="#D7D9E7" d="M59.188,85.407c-3.037-12.439-2.975-35.569-3.194-38.105l-2.446,9.518c0,0-0.778,1.025-0.837,1.156
		c-0.012-0.135-0.631,1.039-0.631,1.039l-0.609,1.212c-1.064,2.387-2.309,11.872-9.253,23.762
		c-4.979,8.484-1.363,16.538,5.732,17.131C55.023,101.71,61.391,94.43,59.188,85.407z"/>
	<path fill="#D9DAE8" d="M59.053,85.346C56.1,73.037,56.189,49.95,55.979,47.437l-2.457,9.564c0,0-0.781,1.029-0.84,1.159
		c-0.011-0.134-0.633,1.047-0.633,1.047l-0.611,1.211c-1.059,2.363-2.284,11.753-9.153,23.503
		c-4.938,8.406-1.391,16.387,5.621,16.982C54.894,101.497,61.199,94.293,59.053,85.346z"/>
	<path fill="#DADBE8" d="M58.918,85.284c-2.869-12.178-2.753-35.221-2.954-37.712l-2.468,9.611c0,0-0.784,1.032-0.842,1.161
		c-0.011-0.133-0.636,1.054-0.636,1.054l-0.614,1.211c-1.052,2.342-2.259,11.635-9.054,23.243
		c-4.897,8.328-1.418,16.238,5.509,16.836C54.765,101.284,61.008,94.156,58.918,85.284z"/>
	<path fill="#DBDCE9" d="M58.783,85.223c-2.785-12.048-2.642-35.047-2.834-37.516l-2.478,9.659c0,0-0.787,1.035-0.845,1.162
		c-0.01-0.131-0.638,1.062-0.638,1.062l-0.616,1.211c-1.046,2.319-2.234,11.515-8.954,22.984c-4.856,8.25-1.446,16.088,5.398,16.688
		C54.637,101.072,60.816,94.021,58.783,85.223z"/>
	<path fill="#DDDEEA" d="M58.648,85.161c-2.7-11.918-2.532-34.873-2.714-37.318l-2.489,9.706c0,0-0.79,1.038-0.848,1.164
		c-0.01-0.13-0.639,1.068-0.639,1.068l-0.619,1.211c-1.04,2.296-2.209,11.396-8.855,22.726c-4.814,8.171-1.472,15.937,5.287,16.54
		C54.508,100.859,60.625,93.885,58.648,85.161z"/>
	<path fill="#DEDFEB" d="M58.513,85.1c-2.616-11.786-2.42-34.699-2.594-37.122l-2.5,9.753c0,0-0.793,1.042-0.851,1.167
		c-0.009-0.128-0.641,1.076-0.641,1.076l-0.621,1.211c-1.034,2.272-2.185,11.275-8.756,22.466
		c-4.772,8.093-1.499,15.787,5.176,16.393C54.379,100.646,60.433,93.749,58.513,85.1z"/>
	<path fill="#DFE0EC" d="M58.378,85.038c-2.533-11.656-2.31-34.524-2.474-36.925l-2.51,9.799c0,0-0.797,1.046-0.854,1.17
		c-0.009-0.128-0.643,1.084-0.643,1.084l-0.625,1.209c-1.027,2.251-2.16,11.158-8.656,22.207
		c-4.732,8.016-1.526,15.638,5.064,16.246C54.25,100.435,60.241,93.612,58.378,85.038z"/>
	<path fill="#E1E1EC" d="M58.244,84.977c-2.449-11.525-2.2-34.35-2.354-36.729l-2.521,9.847c0,0-0.799,1.05-0.856,1.172
		c-0.008-0.126-0.645,1.091-0.645,1.091l-0.627,1.209c-1.021,2.229-2.135,11.038-8.556,21.948
		c-4.69,7.938-1.554,15.486,4.953,16.098C54.122,100.222,60.05,93.477,58.244,84.977z"/>
	<path fill="#E2E3ED" d="M58.108,84.915c-2.365-11.395-2.088-34.176-2.234-36.532l-2.532,9.894c0,0-0.802,1.053-0.859,1.174
		c-0.008-0.124-0.646,1.099-0.646,1.099l-0.63,1.209c-1.015,2.206-2.11,10.919-8.456,21.689c-4.649,7.858-1.581,15.336,4.841,15.95
		C53.993,100.01,59.857,93.341,58.108,84.915z"/>
	<path fill="#E3E4EE" d="M57.974,84.854c-2.282-11.265-1.978-34.002-2.114-36.335l-2.542,9.94c0,0-0.805,1.057-0.861,1.176
		c-0.007-0.123-0.648,1.105-0.648,1.105l-0.633,1.209c-1.008,2.184-2.084,10.8-8.357,21.431c-4.607,7.78-1.608,15.186,4.731,15.802
		C53.864,99.796,59.666,93.205,57.974,84.854z"/>
	<path fill="#E5E5EF" d="M57.838,84.792c-2.199-11.134-1.866-33.827-1.994-36.139l-2.553,9.988c0,0-0.809,1.059-0.864,1.178
		c-0.007-0.122-0.651,1.112-0.651,1.112l-0.635,1.21c-1.002,2.16-2.06,10.68-8.257,21.17c-4.566,7.702-1.635,15.037,4.619,15.655
		C53.735,99.583,59.473,93.068,57.838,84.792z"/>
	<path fill="#E6E7F0" d="M57.704,84.73c-2.116-11.003-1.756-33.653-1.874-35.941l-2.563,10.035c0,0-0.812,1.063-0.867,1.179
		c-0.006-0.12-0.652,1.121-0.652,1.121l-0.637,1.209c-0.996,2.138-2.035,10.561-8.158,20.911
		c-4.525,7.624-1.663,14.887,4.507,15.508C53.606,99.371,59.281,92.933,57.704,84.73z"/>
	<path fill="#E8E8F1" d="M57.569,84.669c-2.033-10.873-1.645-33.479-1.754-35.745l-2.574,10.082c0,0-0.815,1.066-0.87,1.182
		c-0.006-0.119-0.655,1.128-0.655,1.128l-0.64,1.209c-0.99,2.115-2.011,10.441-8.058,20.652c-4.484,7.546-1.69,14.735,4.396,15.359
		C53.478,99.158,59.088,92.797,57.569,84.669z"/>
	<path fill="#E9EAF2" d="M57.434,84.607C55.483,73.865,55.9,51.303,55.8,49.06l-2.585,10.129c0,0-0.818,1.069-0.872,1.184
		c-0.005-0.118-0.656,1.136-0.656,1.136l-0.643,1.207c-0.984,2.094-1.986,10.323-7.959,20.394
		c-4.442,7.469-1.716,14.586,4.286,15.213C53.349,98.945,58.896,92.659,57.434,84.607z"/>
	<path fill="#EBEBF3" d="M57.299,84.546c-1.868-10.612-1.423-33.131-1.515-35.352L53.189,59.37c0,0-0.821,1.073-0.875,1.187
		c-0.005-0.117-0.658,1.143-0.658,1.143l-0.645,1.207c-0.978,2.071-1.961,10.204-7.86,20.135c-4.401,7.39-1.743,14.437,4.174,15.065
		C53.22,98.733,58.703,92.524,57.299,84.546z"/>
	<path fill="#ECEDF3" d="M57.164,84.484c-1.785-10.48-1.312-32.956-1.394-35.154l-2.606,10.223c0,0-0.823,1.076-0.878,1.188
		c-0.004-0.116-0.66,1.149-0.66,1.149l-0.647,1.208c-0.972,2.048-1.936,10.084-7.76,19.875c-4.36,7.312-1.771,14.285,4.063,14.917
		C53.091,98.52,58.51,92.388,57.164,84.484z"/>
	<path fill="#EEEEF4" d="M57.029,84.423c-1.703-10.351-1.201-32.782-1.274-34.958l-2.617,10.27c0,0-0.827,1.08-0.88,1.191
		c-0.004-0.115-0.662,1.156-0.662,1.156l-0.65,1.208c-0.965,2.025-1.911,9.965-7.661,19.615c-4.318,7.233-1.798,14.136,3.951,14.771
		C52.963,98.308,58.317,92.252,57.029,84.423z"/>
	<path fill="#F0F0F5" d="M56.894,84.361c-1.621-10.221-1.091-32.608-1.155-34.762l-2.627,10.317c0,0-0.83,1.083-0.883,1.192
		c-0.003-0.113-0.664,1.165-0.664,1.165l-0.652,1.207c-0.959,2.002-1.887,9.846-7.561,19.356c-4.277,7.155-1.826,13.986,3.84,14.623
		C52.834,98.096,58.124,92.116,56.894,84.361z"/>
	<path fill="#F1F1F7" d="M56.759,84.3c-1.54-10.09-0.98-32.434-1.035-34.564L53.087,60.1c0,0-0.833,1.086-0.886,1.194
		c-0.003-0.112-0.666,1.172-0.666,1.172l-0.655,1.207c-0.953,1.979-1.861,9.727-7.461,19.098
		c-4.236,7.077-1.852,13.835,3.729,14.475C52.705,97.882,57.931,91.979,56.759,84.3z"/>
	<path fill="#F3F3F8" d="M56.624,84.238c-1.458-9.96-0.869-32.26-0.914-34.367l-2.649,10.41c0,0-0.836,1.09-0.888,1.197
		c-0.002-0.11-0.667,1.179-0.667,1.179l-0.659,1.207c-0.946,1.958-1.836,9.607-7.361,18.839c-4.195,6.999-1.879,13.685,3.617,14.327
		C52.576,97.67,57.737,91.844,56.624,84.238z"/>
	<path fill="#F5F5F9" d="M56.489,84.177c-1.376-9.828-0.758-32.085-0.794-34.17l-2.659,10.457c0,0-0.839,1.094-0.891,1.199
		c-0.002-0.109-0.669,1.187-0.669,1.187l-0.661,1.206c-0.94,1.936-1.812,9.489-7.262,18.579c-4.153,6.921-1.906,13.535,3.507,14.18
		C52.448,97.456,57.543,91.707,56.489,84.177z"/>
	<path fill="#F7F7FA" d="M56.354,84.115c-1.312-9.696-0.647-31.911-0.674-33.974l-2.67,10.504c0,0-0.841,1.098-0.894,1.202
		c-0.001-0.108-0.672,1.193-0.672,1.193l-0.663,1.206c-0.934,1.912-1.787,9.369-7.163,18.32c-4.112,6.843-1.934,13.385,3.395,14.032
		C52.319,97.244,57.336,91.572,56.354,84.115z"/>
	<path fill="#FAFAFC" d="M56.219,84.054c-1.225-9.567-0.536-31.737-0.554-33.777l-2.681,10.552c0,0-0.845,1.1-0.896,1.204
		c-0.001-0.108-0.674,1.201-0.674,1.201l-0.666,1.205c-0.928,1.89-1.762,9.25-7.063,18.061c-4.07,6.765-1.96,13.236,3.284,13.886
		C52.19,97.031,57.146,91.437,56.219,84.054z"/>
	<path fill="#FCFCFD" d="M56.084,83.992c-1.138-9.438-0.426-31.563-0.435-33.58L52.958,61.01c0,0-0.848,1.104-0.899,1.206
		c0-0.105-0.675,1.208-0.675,1.208l-0.668,1.206c-0.922,1.867-1.737,9.131-6.964,17.802c-4.029,6.688-1.987,13.086,3.173,13.738
		C52.062,96.819,56.958,91.299,56.084,83.992z"/>
	<path fill="#FFFFFF" d="M55.949,83.931c-1.05-9.309-0.314-31.389-0.314-33.384l-2.702,10.646c0,0-0.851,1.107-0.902,1.208
		c0-0.104-0.677,1.216-0.677,1.216l-0.671,1.205c-0.916,1.845-1.712,9.012-6.864,17.543c-3.988,6.608-2.027,13.038,3.061,13.59
		C51.918,96.709,56.769,91.162,55.949,83.931z"/>
</g>
</svg>
